<?xml version="1.0" standalone="no"?>
<!DOCTYPE svg PUBLIC "-//W3C//DTD SVG 1.1//EN" "http://www.w3.org/Graphics/SVG/1.1/DTD/svg11.dtd" >
<svg xmlns="http://www.w3.org/2000/svg">
<metadata></metadata>
<defs>
<font id="greekregular" horiz-adv-x="0" >
<font-face units-per-em="2048" ascent="1638" descent="-410" />
<missing-glyph horiz-adv-x="558" />
<glyph horiz-adv-x="2048" />
<glyph horiz-adv-x="2048" />
<glyph unicode="&#xd;" horiz-adv-x="558" />
<glyph unicode=" "  horiz-adv-x="558" />
<glyph unicode="&#x09;" horiz-adv-x="558" />
<glyph unicode="&#xa0;" horiz-adv-x="558" />
<glyph unicode="!" d="M-862 1551q0 110 112 110q69 0 108 -58q37 -50 37 -121q0 -74 -68 -158t-141 -114l-16 37q47 20 98.5 84t51.5 110q0 26 -26 26q-9 0 -29.5 -2.5t-29.5 -2.5q-97 0 -97 89zM-546 1238q2 6 4 11l183 404q7 17 44 17q41 0 74.5 -25t33.5 -68q0 -17 -124 -175 q-74 -93 -149 -184q-9 -11 -25 -12q-41 0 -41 32z" />
<glyph unicode="&#x22;" d="M-810 1346q0 39 31 70.5t70 31.5q41 0 71.5 -30.5t30.5 -71.5t-30.5 -71.5t-71.5 -30.5t-71 30.5t-30 71.5zM-385 1346q0 39 30.5 70.5t69.5 31.5q41 0 72 -30.5t31 -71.5t-31 -71.5t-72 -30.5t-70.5 30.5t-29.5 71.5z" />
<glyph unicode="#" d="M-845 1519q0 136 87.5 213.5t223.5 77.5q296 -1 324 -291h-67q-54 181 -244 181q-84 0 -159 -50q-80 -52 -98 -131h-67zM-635 1471q0 112 112 112q69 0 108 -58q37 -50 37 -123t-69 -157.5t-139 -112.5l-17 37q47 20 97 80q54 67 54 112q0 26 -26 26q-9 0 -30 -3t-30 -3 q-39 0 -68 25.5t-29 64.5z" />
<glyph unicode="$" d="M-847 1501q0 69 39 123.5t106 54.5q112 1 112 -109q0 -41 -29 -65.5t-70 -24.5q-9 0 -28.5 3t-29.5 3q-26 0 -26 -26q0 -48 51.5 -110t99.5 -84l-17 -37q-71 28 -139.5 113.5t-68.5 158.5zM-538 1257q2 7 4 11l180 404q7 17 47 17q43 0 75.5 -25t32.5 -68 q0 -17 -125 -175q-76 -93 -151 -185q-7 -11 -22 -11q-41 0 -41 32z" />
<glyph unicode="%" d="M-877 1501q0 69 39 123.5t106 54.5q110 1 110 -109q0 -89 -95 -90q-11 0 -30.5 3t-28.5 3q-28 0 -28 -26q0 -48 54 -114q48 -58 98 -80l-16 -37q-71 28 -140 113.5t-69 158.5zM-542 1605q0 43 33.5 68t76.5 25q37 0 45 -19l182 -400q4 -7 4 -13q0 -30 -43 -30 q-15 0 -22 10q-74 93 -151 184q-125 158 -125 175z" />
<glyph unicode="&#x26;" horiz-adv-x="1266" d="M52 465q0 73 9 148q24 175 143.5 293t292.5 118q155 0 251 -123q84 -106 107 -268h3l131 365h180l-234 -650q13 -80 46 -145q47 -88 110 -88q88 0 114 166h37q-6 -132 -9 -154q-15 -84 -73 -131q-34 -28 -67 -28q-97 0 -201 289q-69 -121 -104 -160q-60 -69 -157 -100.5 t-166 -31.5q-201 0 -314 154q-99 138 -99 346zM264 497q0 -462 237 -462q112 0 201 168q25 48 99 255q-30 218 -75 315q-80 171 -244 171q-115 0 -175 -177q-43 -127 -43 -270zM473 -344q0 95 73 260h89q-61 -102 -62 -197q0 -76 58 -76q48 0 71 13q15 7 54 46l-22 -162 q-61 -41 -121 -41q-65 0 -102.5 45t-37.5 112z" />
<glyph unicode="'" horiz-adv-x="344" d="M69 1435q0 32 29 56.5t60 24.5q34 0 62 -24.5t28 -56.5q0 -6 -69 -411h-41q-69 406 -69 411z" />
<glyph unicode="(" horiz-adv-x="562" d="M80 594q0 277 135 524t370 390l16 -33q-348 -242 -348 -862q0 -317 64 -518q79 -261 284 -425l-24 -33q-233 156 -367 417q-130 255 -130 540z" />
<glyph unicode=")" horiz-adv-x="627" d="M80 -330q348 242 348 861q0 318 -59 519q-82 277 -289 425l24 33q63 -32 166 -141q331 -356 331 -831q0 -266 -136 -514q-140 -253 -366 -385z" />
<glyph unicode="*" horiz-adv-x="1182" d="M54 737q0 34 7 99q17 88 76.5 145.5t147.5 57.5q91 0 136 -60q28 -39 56 -143q74 104 134 151q84 65 184 65q125 0 204 -84t79 -210v-1078q0 -74 47 -93h-168q-61 0 -61 111v1011q0 203 -183 203q-76 0 -138 -52q-35 -28 -100 -110v-750h-173v704q0 223 -112 223 q-74 0 -101 -190h-35zM298 -341q0 58 71 224h89q-61 -102 -61 -160q0 -74 61 -75q45 0 69 11q18 10 52 47l-22 -162q-61 -41 -121 -41q-65 0 -101.5 44.5t-36.5 111.5z" />
<glyph unicode="+" horiz-adv-x="1228" d="M41 445q0 343 199 508q69 56 147 65q32 2 105 6v-35q-158 -67 -218 -207q-45 -108 -45 -311q0 -143 30 -251q45 -164 145 -164q91 0 136 87q20 41 48 166q-54 175 -54 291q0 246 99 245q97 0 97 -244q0 -117 -54 -292q26 -121 50 -166q45 -88 136 -87q101 0 145 166 q28 104 28 245q0 205 -45 313q-60 143 -217 209v35q32 0 104 -6q80 -9 147 -65q199 -167 199 -506q0 -177 -74 -315q-91 -168 -253 -167q-160 0 -263 203q-106 -203 -264 -203q-162 0 -254 167q-74 138 -74 313zM521 -320q0 95 71 260h91q-61 -102 -61 -197q0 -74 59 -74 q47 0 69 11q15 7 52 46l-22 -162q-61 -41 -121 -41q-65 0 -101.5 45t-36.5 112z" />
<glyph unicode="," horiz-adv-x="497" d="M114 84q0 123 122 123q82 0 125 -62q37 -53 37 -139q0 -80 -75 -174.5t-155 -123.5l-19 41q52 22 110 91t58 121q0 32 -28 32q0 2 1 0v-2l-11 -2q-41 -6 -57 -6q-47 0 -77.5 28t-30.5 73z" />
<glyph unicode="-" horiz-adv-x="1189" d="M0 480v82h1190v-82h-1190z" />
<glyph unicode="." horiz-adv-x="493" d="M138 88q0 48 34.5 83.5t82.5 35.5t83.5 -34.5t35.5 -84.5t-34.5 -83t-84.5 -33q-48 0 -82.5 33.5t-34.5 82.5z" />
<glyph unicode="/" d="M-687 1264q0 6 186 413q7 19 45 19q43 0 76.5 -26t33.5 -69q0 -13 -124 -172t-152 -187q-11 -9 -24 -9q-41 0 -41 31z" />
<glyph unicode="0" horiz-adv-x="1256" d="M102 637q0 277 121 458q141 210 406 210q263 0 404 -210q121 -181 121 -458q0 -281 -119 -460q-140 -209 -408 -209q-266 0 -405 209q-119 179 -120 460zM324 637q0 -216 52 -367q78 -222 251 -222q175 0 254 222q52 153 52 367q0 216 -52 367q-76 222 -252 221 q-175 0 -253 -221q-52 -149 -52 -367z" />
<glyph unicode="1" horiz-adv-x="880" d="M130 1095v84q270 0 373 124h82q-9 -194 -10 -288v-810q0 -125 235 -134v-71h-674v71q136 9 156 15q88 24 88 108v901h-250z" />
<glyph unicode="2" horiz-adv-x="1143" d="M110 0v136q65 125 246 253q233 166 283 218q134 141 134 335q0 125 -56 199q-63 82 -185 82q-147 0 -210 -95q30 -128 30 -162q0 -97 -127 -97q-102 0 -102 127q0 141 147 231q128 78 279 78q190 0 311 -89q134 -102 134 -285q0 -209 -139 -341q-73 -71 -306 -195 q-212 -114 -300 -218h797v-177h-936z" />
<glyph unicode="3" horiz-adv-x="1130" d="M63 123q0 127 103 126q48 0 82 -22q41 -26 41 -74q0 -56 -28 -151q67 -84 236 -84q151 0 233 104q74 95 74 250q0 194 -115 247q-69 32 -291 32v116h88q261 0 261 305q0 251 -228 251q-112 0 -204 -93q28 -123 28 -166q0 -47 -38.5 -71.5t-86.5 -24.5q-102 0 -103 126 q0 145 157 235q132 76 287 76q164 0 279 -78q130 -91 130 -250q0 -259 -298 -340v-17q162 -15 255 -102q101 -94 101 -252q0 -205 -171 -324q-153 -106 -367 -106q-151 0 -274 67q-151 80 -151 220z" />
<glyph unicode="4" horiz-adv-x="1156" d="M48 290v155l702 855h131v-877h203v-133h-203v-454h-192v454h-641zM149 423h540v653z" />
<glyph unicode="5" horiz-adv-x="1081" d="M60 112q0 127 100 126q50 0 84 -24q41 -28 41 -74q0 -45 -28 -151q80 -71 220 -71q158 0 238 134q63 108 63 278q0 136 -72 227q-78 99 -213 98q-171 0 -273 -128l-67 24l85 722h715v-176h-635l-52 -425q134 95 281 95q197 0 323 -120.5t126 -315.5q0 -222 -149 -358.5 t-370 -136.5q-145 0 -268 65q-149 78 -149 211z" />
<glyph unicode="6" horiz-adv-x="1159" d="M102 559q0 359 213.5 603t568.5 292l19 -89q-238 -35 -391 -198q-147 -155 -188 -396q156 138 346 138q179 0 294 -138q110 -128 110 -309q0 -209 -137.5 -351.5t-346.5 -142.5q-240 0 -370 181q-117 160 -118 410zM315 546q0 -182 52 -315q73 -184 227 -184 q138 0 208 132q56 104 56 255q0 145 -63 244q-73 114 -210 113q-155 0 -265 -121q-6 -63 -5 -124z" />
<glyph unicode="7" horiz-adv-x="1029" d="M89 883v390h941v-65l-713 -1372h-125l670 1270h-413q-169 0 -214 -26q-60 -39 -84 -197h-62z" />
<glyph unicode="8" horiz-adv-x="1221" d="M104 363q0 240 311 361q-253 141 -253 348q0 175 153 285q136 99 316 99q179 0 300 -91q132 -102 132 -274q0 -222 -259 -341q151 -63 222 -137q91 -94 91 -237q0 -195 -171 -309q-151 -101 -356 -101q-199 0 -333 95q-153 108 -153 302zM300 374q0 -147 85.5 -237 t230.5 -90q132 0 217 76.5t85 206.5q0 132 -157 232q-58 35 -275 129q-186 -101 -186 -317zM359 1121q0 -125 133 -216q71 -50 242 -117q141 89 141 314q0 119 -70.5 197.5t-188.5 78.5q-112 0 -184.5 -72.5t-72.5 -184.5z" />
<glyph unicode="9" horiz-adv-x="1159" d="M84 815q0 207 138.5 348.5t345.5 141.5q242 0 372 -179q116 -160 116 -409q0 -359 -214.5 -599.5t-569.5 -286.5l-19 89q240 35 392 189t189 394q-156 -134 -346 -134q-177 0 -294 136q-110 130 -110 310zM302 842q0 -145 61 -242q74 -115 212 -116q156 0 265 119 q3 84 3 125q0 182 -50 315q-73 184 -227 184q-140 0 -209 -130q-56 -102 -55 -255z" />
<glyph unicode=":" horiz-adv-x="413" d="M110 80q0 48 33.5 81.5t81.5 33.5t82 -33.5t34 -81.5q0 -50 -33.5 -82.5t-82.5 -32.5q-48 0 -81.5 32.5t-33.5 82.5zM110 827q0 50 33.5 82.5t81.5 32.5t82 -32.5t34 -82.5q0 -48 -33.5 -81t-82.5 -33q-48 0 -81.5 32.5t-33.5 81.5z" />
<glyph unicode=";" horiz-adv-x="515" d="M168 819q0 48 33.5 83.5t81.5 35.5q50 0 84.5 -35.5t34.5 -83.5q0 -50 -34.5 -83.5t-84.5 -33.5q-48 0 -81.5 34.5t-33.5 82.5z" />
<glyph unicode="&#x3c;" horiz-adv-x="1074" d="M20 471v127l1019 471v-127l-888 -408l888 -407v-127z" />
<glyph unicode="=" horiz-adv-x="916" d="M0 471v82h881v-82h-881zM0 778v82h881v-82h-881z" />
<glyph unicode="&#x3e;" horiz-adv-x="1057" d="M20 0v127l887 407l-887 408v127l1019 -471v-127z" />
<glyph unicode="?" horiz-adv-x="491" d="M141 84q0 123 123 123q82 0 125 -62q37 -53 37 -139q0 -80 -75 -174.5t-156 -123.5l-18 41q52 22 109.5 91t57.5 121q0 32 -27 32q2 2 1 0v-2l-9 -2q-41 -6 -58 -6q-47 0 -78.5 28t-31.5 73zM145 819q0 48 34.5 83.5t83.5 35.5q48 0 83.5 -35.5t35.5 -83.5 q0 -50 -34.5 -83.5t-84.5 -33.5q-48 0 -83 34.5t-35 82.5z" />
<glyph unicode="@" d="M-842 1570q0 110 110 109q69 0 110 -57q36 -50 36 -121q0 -74 -68 -158t-141 -114l-17 37q47 20 100 83.5t53 110.5q0 26 -28 26q-9 0 -28.5 -3t-31.5 -3q-95 0 -95 90zM-549 1605q0 43 33.5 68t76.5 25q37 0 44 -19l183 -400q3 -7 3 -13q0 -30 -42 -30q-15 0 -23 10 q-74 93 -150 184q-125 158 -125 175z" />
<glyph unicode="A" horiz-adv-x="1346" d="M-56 0v41q73 0 106 39q20 22 52 106l511 1333h52l514 -1333q34 -84 52 -106q34 -39 106 -39v-41h-512v41q132 0 132 87q0 48 -45 179q-34 93 -67 186h-530q-34 -93 -66 -186q-45 -132 -44 -179q0 -87 129 -87h3v-41h-393zM320 586h464l-233 606z" />
<glyph unicode="B" horiz-adv-x="1253" d="M19 0v41h5q179 0 179 145v1149q0 145 -179 145h-5v41h567q525 0 526 -391q0 -246 -259 -329v-6q145 -34 231 -130q87 -103 87 -250q0 -101 -56 -203q-121 -212 -402 -212h-694zM382 199q0 -54 16 -76q19 -28 73 -28h123q140 0 225.5 81.5t85.5 221.5q0 160 -95 251.5 t-257 91.5h-171v-542zM382 836h162q324 0 324 285q0 307 -414 307q-73 0 -72 -19v-573z" />
<glyph unicode="C" horiz-adv-x="1487" d="M15 0v41q132 0 210 108l432 603l-402 624q-68 104 -187 104h-5v41h615v-41h-13q-147 0 -147 -63q0 -35 119 -235q76 -125 152 -249l287 409q34 48 34 79q0 59 -137 59h-9v41h475v-41q-136 0 -214 -108l-382 -525l442 -702q65 -104 190 -104v-41h-615v41q160 0 160 65 q0 34 -136 266q-86 143 -171 287l-339 -480q-24 -35 -24 -64q0 -74 136 -74v-41h-471z" />
<glyph unicode="D" horiz-adv-x="1277" d="M15 0l655 1540l579 -1540h-1234zM151 110h843l-396 1046z" />
<glyph unicode="E" horiz-adv-x="1256" d="M35 0v41q184 0 185 145v1149q0 145 -185 145v41h1088v-335h-56q-35 140 -49 162q-39 65 -145 65h-441v-566h320q209 0 209 212h46v-519h-46q0 114 -48.5 163t-160.5 49h-320v-560q0 -97 79 -97h3l333 9q130 4 209 84q52 54 113 197h64l-94 -385h-1104z" />
<glyph unicode="F" horiz-adv-x="1573" d="M52 748q0 190 105.5 329t287.5 182q69 16 195 16h41v7q0 96 -52 145t-147 49h-7v41h623v-41h-8q-95 0 -146.5 -49t-51.5 -145v-7q153 0 231 -16q182 -43 287.5 -182t105.5 -329q0 -255 -192 -389q-168 -115 -432 -115v-7q0 -96 52 -146t149 -50h7v-41h-627v41h7 q97 0 149 50t52 146v7q-268 0 -435 113q-194 134 -194 391zM298 776q0 -203 89 -322q99 -132 294 -132v884q-168 0 -279 -132q-104 -125 -104 -298zM892 322q197 0 296 132q87 119 87 322q0 173 -104 298q-112 132 -279 132v-884z" />
<glyph unicode="G" horiz-adv-x="1195" d="M45 1475v46h1161l36 -367h-50q-6 43 -27 119q-61 145 -309 146h-392v-1233q0 -86 52 -119q43 -26 132 -26v-41h-581v41q89 0 130 26q54 34 54 119v1063q0 114 -47.5 167t-158.5 59z" />
<glyph unicode="H" horiz-adv-x="1554" d="M67 0v41q91 0 132 26q52 34 52 119v1149q0 86 -52 119q-41 26 -132 26v41h583v-41q-91 0 -132 -26q-52 -34 -53 -119v-510h619v510q0 86 -53 119q-41 26 -132 26v41h581v-41q-89 0 -130 -26q-54 -34 -54 -119v-1149q0 -86 54 -119q41 -26 130 -26v-41h-581v41 q91 0 132 26q52 34 53 119v544h-619v-544q0 -86 53 -119q41 -26 132 -26v-41h-583z" />
<glyph unicode="I" horiz-adv-x="705" d="M48 0v41q91 0 133 26q52 34 52 119v1149q0 86 -52 119q-41 26 -133 26v41h581v-41q-89 0 -130 -26q-54 -34 -54 -119v-1149q0 -86 54 -119q41 -26 130 -26v-41h-581z" />
<glyph unicode="J" horiz-adv-x="1280" d="M54 0l575 739l-551 780h1061l21 -340h-39q-28 119 -80 175q-63 63 -177 63h-451l412 -583l-484 -622h599q123 0 185 67q48 52 83 185h41l-74 -464h-1121z" />
<glyph unicode="K" horiz-adv-x="1467" d="M41 0v41h5q179 0 179 143v1151q0 145 -184 145v39h581v-39q-184 0 -184 -145v-521q158 141 303 290q235 240 235 298q0 78 -177 78v39h532v-39q-74 0 -121 -20q-52 -24 -126 -112q-184 -212 -427 -462l527 -655q73 -91 112 -123q61 -48 152 -67v-41h-623v41h9 q151 0 151 65q0 35 -49 97l-430 536l-68 -69v-486q0 -143 179 -143h5v-41h-581z" />
<glyph unicode="L" horiz-adv-x="1454" d="M48 0v41q65 0 130.5 51t85.5 113l460 1350l512 -1345q65 -169 192 -169v-41h-557v41q147 0 147 108q0 30 -16 74l-332 898l-298 -892q-20 -61 -20 -101q0 -87 130 -87h6v-41h-440z" />
<glyph unicode="M" horiz-adv-x="1794" d="M32 1480v39h411l479 -1150l458 1150h405v-39h-42q-76 0 -105 -26q-34 -28 -33 -106v-1164q0 -84 54 -117q41 -26 130 -26v-41h-581v41q91 0 133 26q52 34 52 117v1108l-501 -1292h-37l-533 1227v-1043q0 -143 184 -143v-41h-469v41q184 0 185 143v1127q0 110 -45 139 q-26 19 -145 30z" />
<glyph unicode="N" horiz-adv-x="1403" d="M56 0v41q184 0 184 143v1179q-63 80 -72 89q-36 29 -87 29q-10 0 -21 -1v39h342l784 -1102v918q0 86 -52 119q-43 26 -132 26v39h469v-39q-91 0 -132 -26q-52 -34 -52 -119v-1354h-45l-901 1237v-1034q0 -143 184 -143v-41h-469z" />
<glyph unicode="O" horiz-adv-x="1498" d="M69 760q0 326 179 549q195 240 512 240t510 -240q178 -223 178 -549q0 -328 -176 -553q-194 -244 -512 -244q-320 0 -514 244q-177 225 -177 553zM305 735q0 -272 92 -450q117 -233 363 -233t363 233q91 180 91 456q0 279 -89 469q-117 251 -365 252q-249 0 -367 -256 q-88 -188 -88 -471z" />
<glyph unicode="P" horiz-adv-x="1528" d="M48 0v41q91 0 133 26q52 34 52 117v1119q0 177 -179 177v39h1463v-39q-181 0 -180 -177l2 -1119q0 -84 54 -117q41 -26 130 -26v-41h-581v41q91 0 132 26q52 34 52 117v1244h-681l2 -1244q0 -84 52 -117q41 -26 132 -26v-41h-583z" />
<glyph unicode="Q" horiz-adv-x="1500" d="M67 763q0 324 181 548q194 240 510 240q317 0 510 -240q180 -224 180 -548q0 -330 -178 -554q-192 -244 -512 -244t-512 244q-179 225 -179 554zM303 743q0 -274 90 -454q115 -235 361 -235q249 0 369 233q89 177 89 456q0 281 -87 469q-117 251 -367 251 q-249 0 -367 -251q-88 -188 -88 -469zM462 573q11 112 11 194q0 84 -11 192l30 2q37 -119 137 -119h257q101 0 138 119l32 -2q-13 -108 -13 -192q0 -82 13 -194l-32 -3q-35 121 -138 121h-257q-102 0 -137 -121z" />
<glyph unicode="R" horiz-adv-x="1113" d="M22 0v41h5q179 0 180 143v1151q0 145 -185 145v39h566q529 0 529 -419q0 -201 -145 -320q-134 -110 -339 -110q-24 0 -214 8v-494q0 -143 179 -143h5v-41h-581zM419 797q34 -24 119 -24q192 0 268 52q91 67 91 253q0 188 -82.5 272t-270.5 84q-125 0 -125 -58v-579z" />
<glyph unicode="S" horiz-adv-x="1234" d="M6 0l575 739l-549 780h1059l21 -340h-40q-28 119 -80 175q-63 63 -177 63h-450l411 -583l-484 -622h602q123 0 184 67q47 52 84 185h41l-77 -464h-1120z" />
<glyph unicode="T" horiz-adv-x="1225" d="M37 1134l11 385h1155l11 -385l-54 -4q0 195 -127 257q-78 39 -301 45v-1248q0 -143 179 -143h5v-41h-581v41h5q179 0 179 143v1248q-223 -6 -301 -45q-127 -61 -127 -257z" />
<glyph unicode="U" horiz-adv-x="1387" d="M13 1206q0 114 88.5 217.5t198.5 103.5q194 0 303 -211q69 -132 116 -380q50 255 115 380q110 210 304 211q110 0 197 -102.5t87 -216.5q0 -50 -39 -50q-22 0 -42 52q-28 69 -51 93q-45 52 -128 52q-192 0 -278 -208q-59 -143 -59 -365v-7l-2 -593q0 -28 32 -67 q26 -34 55 -52q40 -26 133 -26h13v-37h-674v37q108 0 152 32q22 17 49.5 56t27.5 61v589q0 227 -62 372q-84 208 -275 208h-2q-78 0 -125 -52q-22 -24 -52 -93q-22 -52 -43 -52q-39 0 -39 48z" />
<glyph unicode="V" horiz-adv-x="1515" d="M20 1504v41q127 -7 185 -41q67 -39 117 -147q39 -82 50 -264q9 -166 52 -225q71 -97 274 -101v568q0 145 -184 145v39h583v-39q-184 0 -185 -145v-568q203 4 272 101q45 60 54 225q11 182 49 264q50 108 119 147q58 34 184 41v-41q-48 -20 -74.5 -51.5t-33.5 -190.5 q-4 -108 -7 -214q-15 -199 -198 -294q-143 -76 -365 -76v-494q0 -143 180 -143h5v-41h-583v41h5q179 0 179 143v494q-222 0 -367 76q-182 95 -195 294q-4 106 -8 214q-9 158 -34 190t-74 52z" />
<glyph unicode="W" horiz-adv-x="1589" d="M67 0v367h32q13 -73 37 -103q30 -35 97 -35h324l-4 63q-214 71 -329.5 227.5t-115.5 379.5q0 289 194.5 472.5t483.5 183.5q294 0 486.5 -182.5t192.5 -473.5q0 -223 -116 -379.5t-329 -227.5l-3 -63h322q67 0 98 35q24 30 38 103h31v-367h-605l34 343q74 35 113 67 q177 140 177 499q0 246 -95 394q-112 179 -344 179q-231 0 -345 -179q-93 -149 -93 -394q0 -359 177 -499q39 -32 114 -67l33 -343h-605z" />
<glyph unicode="X" horiz-adv-x="1292" d="M89 0v438h38q15 -123 35 -162q37 -65 141 -66h715q106 0 144 66q20 39 35 162h37v-438h-1145zM134 1177v340h1056v-340h-34q-11 76 -35 104q-29 33 -99 33h-4h-715q-71 0 -97.5 -30.5t-37.5 -106.5h-34zM309 564v467h35q4 -67 21 -93q23 -33 83 -33h4h419q63 0 86 33 q17 26 20 93h38v-467h-38q-4 69 -20 93q-22 34 -86 34h-419q-63 0 -87 -34q-17 -24 -21 -93h-35z" />
<glyph unicode="Y" d="M-776 1225q0 37 25 63t62 26t63 -26t26 -63q0 -87 -87 -87h-2q-34 0 -60.5 26t-26.5 61zM-700 1691q0 43 34.5 68t75.5 25q37 0 44 -19l183 -400q4 -7 4 -13q0 -30 -43 -30q-13 0 -22 9q-74 93 -151 185q-125 158 -125 175zM-318 1225q0 37 25 63t62 26t62.5 -26 t25.5 -63q0 -87 -86 -87h-2q-35 0 -61 26t-26 61z" />
<glyph unicode="Z" horiz-adv-x="1286" d="M30 0v43l879 1383h-470q-158 0 -221 -76q-45 -52 -88 -225h-52l32 394h1069v-59l-846 -1365h518q158 0 233 82q54 61 98 233h60l-50 -410h-1162z" />
<glyph unicode="[" horiz-adv-x="519" d="M125 -320v1836h432v-51h-160q-69 0 -92.5 -23t-23.5 -92v-1488q0 -76 22 -100q24 -30 103 -30h151v-52h-432z" />
<glyph unicode="\" d="M-724 1612q0 41 34.5 67t75.5 26q34 0 44.5 -15.5t98 -213t87.5 -203.5q0 -30 -40 -29q-22 0 -161 176t-139 192z" />
<glyph unicode="]" horiz-adv-x="662" d="M125 -268h141q91 0 116 30q20 22 20 111v1438q0 99 -23 128.5t-90 29.5q-17 0 -71 -2t-93 -2v51h432v-1836h-432v52z" />
<glyph unicode="^" d="M-860 1499q0 136 87.5 213t223.5 77q298 0 324 -290h-67q-54 181 -244 180q-84 0 -160.5 -51t-96.5 -129h-67zM-680 1402q0 71 39.5 126t106.5 55q110 0 110 -112q0 -39 -27 -64.5t-68 -25.5q-9 0 -30 3t-30 3q-26 0 -26 -26q0 -47 52 -109t99 -83l-17 -37 q-71 28 -140 112.5t-69 157.5z" />
<glyph unicode="_" horiz-adv-x="1787" d="M0 480v82h1785v-82h-1785z" />
<glyph unicode="`" horiz-adv-x="891" d="M65 674q0 130 78.5 201t206.5 60l6 3q-101 84 -144 140q-65 86 -65 182q0 125 91 196q84 63 214 63q106 0 183 -54q86 -60 86 -162q0 -108 -116 -108q-41 0 -67 28t-26 69q0 47 76 123q-61 60 -141 60q-74 0 -125 -40q-56 -43 -56 -115q0 -93 93 -168l257 -208 q211 -173 211 -344q0 -127 -77.5 -201.5t-202.5 -63.5l-5 -4q97 -82 138 -139q61 -86 61 -185q0 -121 -99 -193q-88 -65 -214 -65q-104 0 -192 52q-102 61 -102 158q0 43 27 86t68 43q125 0 125 -108q0 -32 -77 -114q11 -32 69 -54q50 -19 93 -19q76 0 128.5 43t52.5 117 q0 110 -143 226q-134 102 -268 205q-143 134 -144 290zM173 739q0 -91 146 -225t238 -134q74 0 116 43t42 117q0 84 -152 218t-241 134q-63 0 -106 -44t-43 -109z" />
<glyph unicode="a" horiz-adv-x="1266" d="M52 465q0 73 9 148q24 175 143.5 293t292.5 118q155 0 251 -123q84 -106 107 -268h3l131 365h180l-234 -650q13 -80 46 -145q47 -88 110 -88q88 0 114 166h37q-6 -132 -9 -154q-15 -84 -73 -131q-34 -28 -67 -28q-97 0 -201 289q-69 -121 -104 -160q-60 -69 -157 -100.5 t-166 -31.5q-201 0 -314 154q-99 138 -99 346zM264 497q0 -462 237 -462q112 0 201 168q25 48 99 255q-30 218 -75 315q-80 171 -244 171q-115 0 -175 -177q-43 -128 -43 -270z" />
<glyph unicode="b" horiz-adv-x="1046" d="M86 -456q35 35 35 97l4 1554q0 140 121 235q113 87 254 87h3q153 0 275 -87q136 -97 136 -242q0 -158 -171 -304q136 -65 206.5 -191t70.5 -282q0 -194 -104 -316q-110 -132 -300 -132q-164 0 -326 113l4 -456q0 -56 -31 -76h-177zM283 190q74 -67 127 -93 q67 -35 154 -36q127 0 192 103q54 84 54 220q0 134 -49 266q-65 173 -175 173q-15 0 -42.5 -3t-40.5 -3q-89 0 -90 56q0 69 90 69q19 0 54 -6.5t54 -6.5q22 0 66 56t44 177q0 110 -58 193q-65 93 -173 93q-80 0 -143.5 -71.5t-63.5 -153.5v-1033z" />
<glyph unicode="c" horiz-adv-x="1031" d="M39 657q54 367 222 367q80 0 136 -61q50 -54 68 -138l81 -341l271 499l211 -2l-419 -765q50 -227 115 -397q43 -111 136 -111h2q80 0 125 57q32 39 59 133h38q-39 -371 -255 -371q-134 0 -205 238q-17 56 -65 352h-4l-304 -560h-208l447 823l-66 277q-47 203 -184 203 q-112 0 -164 -203h-37z" />
<glyph unicode="d" horiz-adv-x="1018" d="M54 415q0 141 78 261q74 114 205 177q15 7 158 63l-238 216q-84 78 -84 186q0 74 106 155q56 43 186 43q136 0 250 -40q158 -56 158 -165q0 -35 -28 -59.5t-63 -24.5q-52 0 -110 54q-52 48 -102 99q-69 54 -149 54q-54 0 -101 -32q-48 -37 -48 -89q0 -88 177 -200 q259 -166 331 -236q177 -174 177 -410q0 -201 -138 -350q-140 -154 -336 -154h-3q-175 0 -300.5 137.5t-125.5 314.5zM274 458q0 -151 52 -259q67 -139 199 -139h2q121 0 184 117q50 95 50 227q0 130 -52 248q-54 127 -150 204q-285 -58 -285 -398z" />
<glyph unicode="e" horiz-adv-x="893" d="M52 257q0 190 229 259q-99 45 -140 82q-60 58 -59 147q0 141 147 219q119 63 272 64q110 0 199 -38q119 -50 119 -147q0 -41 -26 -68t-67 -27q-61 0 -87 51.5t-51 101.5q-39 54 -123 54q-91 0 -143 -61.5t-52 -154.5q0 -182 182 -182q26 0 80 6.5t81 6.5q74 0 74 -45 q0 -32 -43 -48q-35 -15 -71 -15q-20 0 -60 6.5t-61 6.5q-89 0 -135.5 -57t-46.5 -148q0 -216 292 -216q210 0 268 179l54 -13q-4 -134 -147 -205q-114 -56 -260 -56q-162 0 -282 67q-143 82 -143 231z" />
<glyph unicode="f" horiz-adv-x="1208" d="M65 546q0 207 142 337q136 125 344 141q0 69 -20.5 208.5t-20.5 210.5q0 73 103 73q102 0 102 -79q0 -67 -16 -204.5t-16 -208.5q210 -2 346 -141t136 -349q0 -236 -121 -383q-128 -155 -361 -171l-3 -408h-125l-4 408q-486 119 -486 566zM272 510q0 -233 97 -339 q91 -97 182 -110v887q-166 -19 -231 -153q-48 -99 -48 -285zM683 61q84 24 103 32q54 22 91 58q97 89 97 318v9v79q0 149 -73 255q-80 119 -218 136v-887z" />
<glyph unicode="g" horiz-adv-x="1044" d="M41 652q6 175 28 240q43 132 175 132q168 0 238 -285q56 -231 91 -449h4l231 721h214l-419 -890q37 -222 37 -311q0 -95 -24 -167q-35 -101 -110 -101q-109 0 -109 140q0 126 122 443q-76 562 -184 687q-47 52 -110 52q-82 0 -117 -71q-22 -45 -35 -141h-32z" />
<glyph unicode="h" horiz-adv-x="1182" d="M54 737q0 34 7 99q17 88 76.5 145.5t147.5 57.5q91 0 136 -60q28 -39 56 -143q74 104 134 151q84 65 184 65q125 0 204 -84t79 -210v-1078q0 -74 47 -93h-168q-61 0 -61 111v1011q0 203 -183 203q-76 0 -138 -52q-35 -28 -100 -110v-750h-173v704q0 223 -112 223 q-74 0 -101 -190h-35z" />
<glyph unicode="i" horiz-adv-x="707" d="M50 881v41q127 24 354 108v-753q0 -74 20 -132q30 -82 90 -82q56 0 84 47q13 24 29 97h40q-24 -115 -64 -170q-53 -72 -157 -72h-3q-80 0 -146 54.5t-66 135.5v485q0 177 -65 222q-28 19 -116 19z" />
<glyph unicode="j" horiz-adv-x="845" d="M43 423q0 235 161 418t394 183q67 0 130 -24q80 -34 80 -90q0 -80 -110 -80q-43 0 -124 17t-122 17q-143 0 -240 -129q-91 -119 -91 -266q0 -117 67 -205q73 -95 184 -95q35 0 104.5 5t102.5 5q114 0 171.5 -45.5t94.5 -155.5q11 -37 11 -82q0 -140 -95 -253 q-99 -119 -236 -120q-63 0 -112 28q-56 34 -56 93q0 88 125 88q24 0 72.5 -17t72.5 -17q67 0 105.5 44t38.5 111q0 113 -96 113h-3q-41 0 -143 -1q-91 -4 -144 -4q-166 0 -260 154q-82 130 -82 308z" />
<glyph unicode="k" horiz-adv-x="1131" d="M20 892v43q195 37 332 93v-443q255 255 436 389q69 50 158 50q56 0 98 -24q50 -30 51 -82q0 -48 -33.5 -78t-82.5 -30q-37 0 -86.5 34.5t-65.5 34.5q-61 0 -311 -252l355 -454q79 -100 111 -100h1q47 0 91 37l28 -26q-97 -86 -199 -86q-88 0 -125 22q-28 17 -89 94 l-337 415v-529h-173v721q0 99 -31 133t-128 38z" />
<glyph unicode="l" horiz-adv-x="1107" d="M26 0l473 1020q-37 162 -58 211q-54 126 -149 126h-2q-82 0 -122 -59q-22 -32 -53 -131h-39q26 348 201 349q67 0 126 -47t83 -112q82 -207 154 -556q28 -162 103 -479q50 -177 173 -177q67 0 102 54q22 34 41 114h39q-2 -39 -9 -118q-13 -91 -59 -154q-58 -76 -140 -76 q-127 0 -188 141q-39 86 -82 313q-37 188 -52 329h-4l-350 -748h-188z" />
<glyph unicode="m" horiz-adv-x="1137" d="M43 -311q0 56 29 163t29 165v1007h176v-681q0 -238 194 -239q65 0 134 48.5t95 110.5v761h177v-786q0 -63 24 -111q30 -63 86 -64q52 0 80 51q11 20 30 93h41q-61 -242 -250 -242q-91 0 -134 59q-28 39 -52 142q-140 -201 -335 -201q-54 0 -104 31q-22 13 -88 67v-46 q0 -58 32.5 -165t32.5 -163q0 -54 -22 -95q-26 -50 -77 -50q-50 0 -76 50q-22 41 -22 95z" />
<glyph unicode="n" horiz-adv-x="1077" d="M37 936v40q101 9 138 18q58 11 130 45l324 -830l162 310q54 102 54 174q0 37 -16.5 111.5t-16.5 111.5q0 45 29.5 77.5t72.5 32.5q48 0 82 -37.5t34 -87.5q0 -91 -188 -452q-210 -406 -235 -484h-76l-350 899q-19 48 -56 61q-6 2 -88 11z" />
<glyph unicode="o" horiz-adv-x="1079" d="M67 493q0 212 125 365q134 164 340 164q210 0 352 -158q136 -151 136 -361q0 -216 -130 -375q-137 -167 -346 -167h-2q-212 0 -348 164q-127 153 -127 368zM279 493q13 -448 292 -448h1q160 0 221 139q38 84 49 285q1 24 1 47q0 165 -57 286q-78 161 -231 161h-9 q-145 -4 -215 -159q-53 -115 -53 -277q0 -17 1 -34z" />
<glyph unicode="p" horiz-adv-x="1145" d="M30 691q54 145 95 203q74 102 190 102h763v-177h-257q-26 -240 -26 -480q0 -73 30 -123q37 -61 104 -61q102 0 123 152h43q-2 -127 -60 -223q-71 -119 -186 -119q-41 0 -74 22q-73 52 -99 136q-17 58 -17 167q0 197 35 529h-230q-17 -272 -26 -367q-24 -233 -62 -353 q-45 -140 -140 -140q-45 0 -77 32.5t-32 77.5q0 43 72.5 132t79.5 149l60 469h-97q-67 0 -108 -35q-19 -17 -69 -93h-35z" />
<glyph unicode="q" horiz-adv-x="1087" d="M95 806q0 290 89 490q117 264 363 264q225 0 352 -268q99 -214 99 -480q0 -313 -82 -535q-117 -312 -367 -312h-2q-253 0 -368 309q-84 220 -84 532zM287 834h515q0 231 -39 391q-63 259 -217 259q-253 0 -259 -650zM289 717q0 -207 48 -395q69 -272 210 -272 q143 0 213 272q44 183 44 395h-515z" />
<glyph unicode="r" horiz-adv-x="1035" d="M78 -471q37 30 37 104q2 48 2 940q0 257 257 401q89 48 177 48q214 0 337 -151q116 -141 116 -359q0 -201 -125 -367q-136 -182 -330 -182q-71 0 -139 31q-74 34 -108 90v-481q0 -54 -32 -74h-192zM283 696q0 -4 11 -458q2 -69 80 -126.5t149 -57.5q149 0 229 121 q69 104 69 259q0 171 -93 313q-108 162 -270 162q-80 0 -127.5 -65.5t-47.5 -147.5z" />
<glyph unicode="s" horiz-adv-x="1223" d="M47 531q0 225 199 366q179 127 413 127h531v-177h-445v-4q78 -24 175 -121q91 -91 126 -173q28 -67 28 -141q0 -205 -156 -332q-147 -119 -356 -119q-214 0 -368 183q-147 173 -147 391zM257 519q0 -277 179 -417q80 -63 154 -63q143 0 214 116q62 94 62 247 q0 140 -62 250q-52 95 -167 195q-91 0 -127 -5q-121 -22 -187 -110t-66 -213z" />
<glyph unicode="t" horiz-adv-x="947" d="M56 637q45 175 112 262q91 125 242 125h480v-188h-315q-11 -121 -20 -242q-13 -147 -13 -238q0 -67 31 -129q36 -72 97 -72h2q63 0 91 50q13 22 34 108h37q-2 -121 -20 -181q-28 -91 -110 -139q-47 -30 -99 -30q-110 0 -160 119q-37 86 -37 212q0 151 43 540h-187 q-99 0 -173 -197h-35z" />
<glyph unicode="u" horiz-adv-x="1154" d="M4 730q48 155 74 199q60 102 171 102q54 0 105.5 -37t60.5 -89q39 -205 39 -551q0 -147 82 -237q61 -69 121 -69q138 0 211 188q52 138 52 304q0 169 -49 270q-52 112 -188 194l13 35q389 -151 389 -536q0 -231 -113 -376q-127 -162 -350 -162q-169 0 -272 147 q-69 97 -71 259q-2 119 -3 240q-6 177 -26.5 219.5t-63.5 42.5q-50 0 -87 -50q-15 -22 -51 -93h-44z" />
<glyph unicode="v" horiz-adv-x="1441" d="M28 966v36q50 26 140 26q145 0 217 -159q26 -60 49 -279q30 -300 31 -305q30 -194 205 -237v952q0 71 -21.5 209.5t-21.5 209.5q0 85 101 85h2q104 0 104 -89q0 -69 -17.5 -207.5t-17.5 -207.5v-952q175 41 205 237q11 106 33 316q20 199 52 278q61 149 211 149 q91 0 139 -26v-36q-82 -17 -113 -37q-50 -32 -62 -262q-13 -277 -74 -412q-106 -227 -391 -287v-432h-129v432q-285 58 -391 287q-61 134 -74 412q-11 231 -62 262q-32 20 -115 37z" />
<glyph unicode="w" horiz-adv-x="1228" d="M41 445q0 343 199 508q69 56 147 65q32 2 105 6v-35q-158 -67 -218 -207q-45 -108 -45 -311q0 -143 30 -251q45 -164 145 -164q91 0 136 87q20 41 48 166q-54 175 -54 291q0 245 98 245h1q97 0 97 -244q0 -117 -54 -292q26 -121 50 -166q44 -87 134 -87h2q101 0 145 166 q28 104 28 245q0 205 -45 313q-60 143 -217 209v35q32 0 104 -6q80 -9 147 -65q199 -167 199 -506q0 -177 -74 -315q-90 -167 -251 -167h-2q-160 0 -263 203q-106 -203 -264 -203q-162 0 -254 167q-74 138 -74 313z" />
<glyph unicode="x" horiz-adv-x="893" d="M52 404q0 76 35.5 176t83.5 157q32 35 138 123q-108 123 -108 211q0 123 76 195q-147 52 -147 147q0 65 62 114q58 43 126 43q13 0 28 -6l4 -32q-114 -48 -114 -102q0 -84 110 -95q127 99 138 108q89 58 162 58q86 0 86 -64q0 -88 -131 -136q-89 -35 -210 -44 q-119 -84 -119 -194q0 -74 113 -162q190 89 313 89q136 0 136 -70q0 -114 -259 -114q-41 0 -167 26q-263 -156 -263 -370q0 -52 23 -108q43 -101 141 -138q71 -26 203 -26h55h53q168 0 236 -50q103 -78 103 -203q0 -145 -88 -265q-95 -134 -234 -134q-173 0 -173 116 q0 82 83 82q30 0 89.5 -9.5t89.5 -9.5q58 0 94 37t36 95q0 143 -147 144q-39 0 -117 -3t-117 -3q-253 0 -361 190q-61 110 -62 227z" />
<glyph unicode="y" d="M-765 1225q0 37 25 63t62 26t63.5 -26t26.5 -63q0 -87 -88 -87h-2q-35 0 -61 26t-26 61zM-492 1352q2 7 4 13l181 400q7 19 46 19q43 0 75.5 -25.5t32.5 -66.5q0 -20 -124 -176q-76 -91 -151 -185q-9 -9 -23 -9q-41 0 -41 30zM-320 1225q0 37 26 63t63 26t62.5 -26 t25.5 -63q0 -87 -86 -87h-2q-35 0 -62 26t-27 61z" />
<glyph unicode="z" horiz-adv-x="862" d="M89 439q0 220 69 404q61 169 203 360q-108 35 -125 46q-61 37 -61 108q0 84 73 138q63 45 152 54l4 -37q-108 -50 -108 -127q0 -95 115 -128q257 238 365 238q76 0 77 -65q0 -34 -28 -71q-104 -134 -339 -158q-130 -104 -216 -307q-84 -195 -84 -369q0 -80 8 -117 q15 -86 82.5 -151t151.5 -65q22 0 70.5 2.5t71.5 2.5h2q351 0 351 -299q0 -153 -93 -254q-95 -106 -245 -106q-63 0 -112 23q-63 30 -63 85q0 97 109 97q32 0 93.5 -17.5t93.5 -17.5q61 0 98 50q32 45 32 108q0 60 -44 93.5t-103 33.5q-34 0 -101 -7.5t-102 -7.5 q-117 0 -223 70q-173 119 -174 391z" />
<glyph unicode="{" d="M-676 1519q0 69 36 121q43 58 109 58q110 0 110 -110q0 -41 -28.5 -65t-69.5 -24q-9 0 -28 2.5t-30 2.5q-26 0 -26 -26q0 -48 54 -111q48 -60 98 -82l-16 -38q-71 28 -140 114t-69 158z" />
<glyph unicode="|" horiz-adv-x="960" d="M48 -424l689 1947h132l-690 -1947h-131z" />
<glyph unicode="}" d="M-657 1588q0 110 110 110q69 0 109 -58q36 -50 36 -121q0 -74 -67 -158t-142 -114l-16 38q47 20 99.5 83.5t52.5 109.5q0 26 -28 26q-9 0 -28.5 -2.5t-28.5 -2.5q-97 0 -97 89z" />
<glyph unicode="~" d="M-894 1275q0 136 87.5 213.5t223.5 77.5q296 -1 324 -291h-67q-54 181 -244 181q-84 0 -158 -50q-80 -52 -99 -131h-67z" />
<glyph unicode="&#xad;" horiz-adv-x="1189" d="M0 480v82h1190v-82h-1190z" />
<glyph unicode="&#x2000;" horiz-adv-x="905" />
<glyph unicode="&#x2001;" horiz-adv-x="1810" />
<glyph unicode="&#x2002;" horiz-adv-x="905" />
<glyph unicode="&#x2003;" horiz-adv-x="1810" />
<glyph unicode="&#x2004;" horiz-adv-x="603" />
<glyph unicode="&#x2005;" horiz-adv-x="452" />
<glyph unicode="&#x2006;" horiz-adv-x="301" />
<glyph unicode="&#x2007;" horiz-adv-x="301" />
<glyph unicode="&#x2008;" horiz-adv-x="226" />
<glyph unicode="&#x2009;" horiz-adv-x="362" />
<glyph unicode="&#x200a;" horiz-adv-x="100" />
<glyph unicode="&#x2010;" horiz-adv-x="1189" d="M0 480v82h1190v-82h-1190z" />
<glyph unicode="&#x2011;" horiz-adv-x="1189" d="M0 480v82h1190v-82h-1190z" />
<glyph unicode="&#x2012;" horiz-adv-x="1189" d="M0 480v82h1190v-82h-1190z" />
<glyph unicode="&#x2013;" horiz-adv-x="1023" d="M0 480v82h1024v-82h-1024z" />
<glyph unicode="&#x2014;" horiz-adv-x="2047" d="M0 480v82h2048v-82h-2048z" />
<glyph unicode="&#x202f;" horiz-adv-x="362" />
<glyph unicode="&#x205f;" horiz-adv-x="452" />
<glyph unicode="&#xe000;" horiz-adv-x="1573" d="M0 0v1573h1573v-1573h-1573z" />
</font>
</defs>
</svg>
