<?xml version="1.0" standalone="no"?>
<!DOCTYPE svg PUBLIC "-//W3C//DTD SVG 1.1//EN" "http://www.w3.org/Graphics/SVG/1.1/DTD/svg11.dtd" >
<svg xmlns="http://www.w3.org/2000/svg">
<metadata></metadata>
<defs>
<font id="adolphusregular" horiz-adv-x="1681" >
<font-face units-per-em="2048" ascent="1638" descent="-410" />
<missing-glyph horiz-adv-x="702" />
<glyph horiz-adv-x="2048" />
<glyph horiz-adv-x="2048" />
<glyph unicode="&#xd;" horiz-adv-x="569" />
<glyph unicode=" "  horiz-adv-x="702" />
<glyph unicode="&#x09;" horiz-adv-x="702" />
<glyph unicode="&#xa0;" horiz-adv-x="702" />
<glyph unicode="!" horiz-adv-x="323" d="M20 0v199h199v-199h-199zM20 1599h199l-34 -1234h-131z" />
<glyph unicode="&#x22;" horiz-adv-x="571" d="M20 1800h199l-67 -366h-66zM260 1800h199l-66 -366h-66z" />
<glyph unicode="#" horiz-adv-x="1314" d="M20 493l12 80h183l67 453h-183l11 80h184l73 493h183l-73 -493h367l73 493h183l-73 -493h183l-12 -80h-183l-68 -453h184l-12 -80h-183l-74 -493h-182l72 493h-366l-73 -493h-183l72 493h-182zM398 573h367l67 453h-367z" />
<glyph unicode="$" horiz-adv-x="1320" d="M20 51v98q35 -30 83 -51q71 -32 155 -41q89 -10 183 4q81 11 157 39v649q-191 50 -306.5 168.5t-115.5 261.5q0 144 115.5 262t306.5 169v29h77v-12q76 12 151 12q78 0 155 -13q153 -26 272 -99v-98q-33 29 -83 51q-73 31 -155 41q-86 10 -184 -3q-81 -13 -156 -40v-649 q190 -51 305.5 -169t115.5 -262q0 -143 -115.5 -260.5t-305.5 -167.5v-30h-77v13q-77 -13 -152 -13q-77 0 -155 13q-153 26 -271 98zM323 1045q11 -45 46 -84q35 -42 92 -71q59 -31 137 -46v600q-60 -29 -110 -67q-70 -54 -112 -114q-39 -55 -53 -114q-12 -55 0 -101v-3z M675 134q63 30 109 67q68 51 113 114q38 55 53 115q11 51 5.5 75.5t-6 25.5t-0.5 2q-12 44 -45 84q-36 40 -93 71q-47 25 -109 40q-7 0 -27 4v-598z" />
<glyph unicode="%" horiz-adv-x="1639" d="M-7 1079q0 33 6 68q27 158 158 289q130 130 288 157q35 6 67 6q110 0 182 -71q92 -92 65 -250t-157 -288q-131 -131 -288.5 -158t-249.5 66q-71 71 -71 181zM158 1057q6 -46 23 -75q14 -26 35 -39q2 -3 6 -3q14 -11 39 -14q26 -3 55 5q32 7 69 28q36 20 72 55 q57 55 95 128q36 71 47 148q9 68 -8 122q-11 34 -29 54q-18 19 -37 27q-23 8 -53 7q-36 -4 -74 -21q-44 -20 -84 -56q-45 -40 -76 -87q-47 -67 -67 -143q-20 -74 -13 -136zM390 0l598 1599h198l-597 -1599h-199zM786 320.5q27 157.5 158 288.5q130 130 287.5 157t250.5 -64 q71 -72 71 -183q0 -32 -5 -68q-28 -157 -159 -288q-131 -130 -288 -156q-35 -7 -67 -7q-111 0 -182 71q-93 92 -66 249.5zM946 230q4 -42 22 -74q15 -28 36 -40q1 -2 5 -3q18 -11 39 -14q27 -3 56 5q32 7 68 28q38 22 73 56q58 55 94 128q38 72 48 147q8 69 -8 122 q-12 35 -30 54q-15 18 -37 27q-23 9 -53 8q-34 -4 -74 -22q-44 -20 -84 -55q-44 -40 -76 -87q-47 -70 -66 -144q-21 -74 -13 -136z" />
<glyph unicode="&#x26;" horiz-adv-x="1274" d="M19 335v4q0 134 75 273q76 141 205 244l-75 89q-63 72 -53 186.5t90 224.5q79 109 195 169q95 49 183 49q20 0 39 -2q106 -14 160 -95.5t34 -198.5q-21 -117 -107.5 -221.5t-203.5 -154.5q-25 -10 -38 -16q-21 -11 -47 -27l334 -410q34 85 43 171q2 16 2 46h174 q-4 -171 -119 -338l267 -328h-148l-197 231q-115 -122 -258 -183q-114 -48 -219 -48q-27 0 -53 3q-130 16 -206.5 106.5t-76.5 225.5zM194 382q-6 -70 9 -130q14 -56 42 -93q23 -31 52 -47q30 -18 72 -22q43 -4 94 10q53 15 109 51q56 35 108 92q33 37 68 87l-376 441 q-40 -42 -72 -90q-46 -69 -73 -148q-28 -76 -33 -151zM334 1067q6 -36 21 -58q11 -20 29 -29q14 -9 31 -10q21 -4 47 3q28 5 59 23q51 29 94 80q45 53 73 118q25 61 29 125q1 53 -14 94q-11 23 -26 39q-14 11 -31 18q-23 5 -48 1q-30 -4 -66 -23q-37 -20 -74 -54 q-39 -39 -64 -81q-39 -63 -54 -130q-15 -62 -6 -116z" />
<glyph unicode="'" horiz-adv-x="269" d="M20 1800h199l-67 -366h-66z" />
<glyph unicode="(" horiz-adv-x="662" d="M20 800q0 330 165 564.5t399 234.5q-121 -3 -218 -169q-2 -1 -3.5 -2t-3.5 -2q-67 -33 -118 -102q-56 -75 -83 -178q-31 -111 -28 -232q4 -130 41 -252q34 -119 93 -215q43 -197 129 -320.5t191 -126.5q-234 0 -399 234t-165 566z" />
<glyph unicode=")" horiz-adv-x="668" d="M20 0q121 3 218 169l4 2t3 2q67 33 118 102q56 75 83 178q32 111 28 232q-4 130 -41 252q-34 119 -93 215q-43 197 -129 320.5t-191 126.5q234 0 399 -234t165 -566q0 -330 -165 -564.5t-399 -234.5z" />
<glyph unicode="*" horiz-adv-x="1030" d="M20 1238v199h270l-186 186l93 92l185 -185v270h200v-270l186 185l92 -92l-186 -186h271v-199h-271l186 -186l-92 -92l-186 185v-270h-200v270l-185 -185l-93 92l186 186h-270z" />
<glyph unicode="+" horiz-adv-x="1051" d="M20 563v199h362v363h200v-363h363v-199h-363v-363h-200v363h-362z" />
<glyph unicode="," horiz-adv-x="347" d="M20 -200l65 364h200l-200 -364h-65z" />
<glyph unicode="-" horiz-adv-x="963" d="M20 717v183h867v-183h-867z" />
<glyph unicode="." horiz-adv-x="256" d="M13 60q0 7 1 16q7 37 38 68q30 31 68 38q8 1 17 1q26 0 43 -16q16 -17 16 -44q0 -8 -1 -16q-7 -38 -37 -68q-31 -31 -69 -38q-8 -1 -16 -1q-26 0 -43 17q-17 16 -17 43z" />
<glyph unicode="/" horiz-adv-x="923" d="M20 0l598 1599h199l-598 -1599h-199z" />
<glyph unicode="0" horiz-adv-x="1669" d="M-36 524q0 66 12 140q55 326 326 597q270 270 596 326q74 13 141 13q229 0 377 -148q147 -148 147 -377q0 -67 -12 -141q-56 -326 -326 -596q-272 -270 -598 -325q-74 -12 -141 -12q-228 0 -376 146q-146 148 -146 377zM166 471q11 -112 56 -200q40 -83 107 -133 q20 -16 37 -25q85 -49 195 -47q116 2 240 65q130 63 244 182q115 116 196 271q78 150 108 310q27 155 2 290q-20 106 -69 184q-49 74 -117 116q-70 41 -157 48q-93 6 -192 -26q-105 -34 -208 -109q-103 -73 -193 -184q-89 -108 -150 -237q-60 -127 -85 -259 q-25 -128 -14 -246z" />
<glyph unicode="1" horiz-adv-x="499" d="M20 1261v114q7 7 14 14.5t14 14.5q85 87 152 195h199v-1599h-199v1404q-86 -82 -180 -143z" />
<glyph unicode="2" horiz-adv-x="1183" d="M20 0l56 66h8q116 3 241 65q131 64 244 181q119 122 195 272q78 150 108 310q27 154 3 290q-20 107 -70 184q-49 75 -117 116q-69 41 -156 48q-90 7 -193 -25q-106 -36 -207 -110q-14 -9 -27 -20v95q219 122 434 127h16q203 0 343 -110q145 -115 178 -314q10 -55 10 -113 q0 -149 -63 -312q-89 -225 -273.5 -410t-408.5 -274h745v-66h-1066z" />
<glyph unicode="3" horiz-adv-x="1145" d="M20 50v243q5 -23 19 -55q27 -62 71 -99q18 -17 35 -26q49 -29 110 -32q64 -4 139 22q77 25 153 82q78 59 144 141q65 82 109 180t61 194q15 94 6 180q-11 80 -43 142q-31 55 -77 88q-45 32 -103 42q-65 8 -134 -10q-9 -3 -28 -9q24 61 32 123q9 75 -11 140q-14 40 -35 65 q-21 23 -49 34q-28 10 -66 9q-43 -4 -88 -25q-49 -23 -98 -66q-48 -42 -87 -101t-60 -117v238q108 101 238 143q72 24 139 24q50 0 97 -15q107 -32 156.5 -128t26.5 -223q169 -12 272 -122t105 -283v-6q0 -170 -97 -347q-100 -180 -269 -306q-169 -127 -351 -159 q-56 -10 -107 -10q-117 0 -210 49z" />
<glyph unicode="4" horiz-adv-x="1196" d="M20 523l49 66h15q116 2 241 64q130 64 244 181q118 121 195 272q78 150 108 311q15 79 15 159l199 23v-1599h-199v523h-867zM341 589h546v436q-219 -307 -546 -436z" />
<glyph unicode="5" horiz-adv-x="1340" d="M20 413v1186h616v-66h-417v-627q166 199 392 283t404 13t225 -264q14 -59 14 -120q0 -141 -75 -296q-108 -224 -318.5 -371.5t-423.5 -150.5l37 81q57 0 119 22q78 26 154 82q76 58 143 141q66 84 109 179q44 94 61 194q16 95 6 181q-11 81 -43 141q-30 55 -76 89 q-48 33 -104 41q-60 9 -133 -9q-78 -22 -153 -71q-78 -52 -147 -130q-70 -80 -118 -174q-47 -93 -72 -193q0 -4 -1 -9z" />
<glyph unicode="6" horiz-adv-x="1339" d="M0 411q0 25 2 51q15 242 118.5 451.5t269.5 363t384 240.5q207 82 439 82h21v-66q-289 20 -542 -121t-387 -398q183 163 394.5 206.5t360.5 -50.5q148 -96 171 -288q3 -32 3 -64q0 -163 -94 -337q-115 -208 -316 -342.5t-403 -138.5h-7q-198 0 -312 127 q-102 112 -102 284zM157 363q9 -88 43 -154q32 -65 82 -103q14 -11 29 -19q66 -38 150 -36q90 2 186 50q99 48 188 140q91 93 151 209q60 115 83 241q21 121 3 223q-16 80 -54 142q-38 57 -91 89t-120 38q-71 5 -149 -20q-82 -27 -160 -84q-84 -61 -149 -143 q-69 -84 -116 -182q-47 -100 -66 -201q-19 -99 -10 -190z" />
<glyph unicode="7" horiz-adv-x="1320" d="M20 1533v66h1235l-60 -66q-79 0 -162 -26q-107 -36 -208 -110q-105 -75 -193 -184q-88 -108 -149 -237q-60 -125 -86 -259q-17 -88 -17 -169v-548h-199v533q-3 295 213.5 585t531.5 415h-906z" />
<glyph unicode="8" horiz-adv-x="1187" d="M-16 368q0 89 34 188q60 183 213 329q-93 81 -80.5 227t123.5 280q111 133 262 184q69 23 130 23q72 0 132 -32q111 -60 123.5 -198t-80.5 -281q152 -44 215 -185q34 -77 34 -167q0 -74 -24 -158q-53 -182 -200 -334t-330 -213q-96 -31 -182 -31q-78 0 -147 24 q-147 54 -200 202q-23 67 -23 142zM167 454q-12 -84 1 -156q11 -67 42 -116q28 -45 70 -69l2 -1q37 -22 87 -27q53 -4 112 14q63 19 127 64q66 44 122 110q57 64 100 145q53 102 73 210q17 104 -1 191q-14 65 -45 112q-31 42 -71 65q-3 1 -6.5 2t-6.5 4 q-93 -100 -211.5 -147t-219.5 -24q-21 -23 -34 -41q-57 -77 -93 -163q-37 -86 -48 -173zM315 1055q4 -45 22 -75q1 -3 3 -6q173 119 349 130q11 16 21 37q37 74 47 147q9 69 -8 123q-12 32 -29 54q-18 19 -38 27q-21 8 -53 7q-33 -2 -74 -21q-45 -20 -84 -56 q-40 -34 -77 -87q-47 -69 -67 -144t-12 -136zM439 923q15 0 34 5q35 8 69 29q36 18 72 54q-18 -5 -46 -14q-66 -26 -129 -74z" />
<glyph unicode="9" horiz-adv-x="1330" d="M-3 0v66q289 -21 541.5 120.5t387.5 398.5q-184 -164 -395.5 -207.5t-359.5 51.5t-170 288q-4 31 -4 63q0 163 94 338q114 208 315 342.5t404 138.5h9q196 0 310 -127q101 -111 101 -280q0 -27 -2 -55q-16 -243 -119.5 -452.5t-269.5 -362.5t-383 -239q-209 -83 -442 -83 h-17zM159 685q15 -81 54 -142q37 -57 90 -89t121 -38q71 -5 149 20q81 27 160 85q80 57 149 142q67 82 116 182q46 99 66 201q18 99 10 190q-10 87 -43 154q-33 64 -82 103q-19 14 -29 19q-67 37 -150 36q-93 -3 -187 -50q-100 -50 -188 -140q-89 -92 -151 -209 q-61 -121 -83 -241q-21 -121 -2 -223z" />
<glyph unicode=":" horiz-adv-x="249" d="M13 60q0 7 1 16q7 37 38 68q30 31 67.5 37.5t60.5 -14.5q16 -17 16 -44q0 -8 -1 -16q-7 -38 -37 -68q-31 -31 -69 -38q-8 -1 -16 -1q-26 0 -43 17q-17 16 -17 43zM13 571q0 8 1 16q7 38 38 69q30 30 68 37q8 1 16 1q27 0 44 -16q16 -17 16 -44q0 -8 -1 -16 q-7 -38 -37 -68q-31 -31 -68.5 -38t-59.5 16q-17 16 -17 43z" />
<glyph unicode=";" horiz-adv-x="355" d="M20 -189l65 364h200l-200 -364h-65zM61.5 592.5q6.5 37.5 37.5 68.5q30 31 69 38q8 1 16 1q27 0 43 -17q22 -22 15.5 -59t-37.5 -68t-68.5 -37.5t-59.5 15.5q-22 21 -15.5 58.5z" />
<glyph unicode="&#x3c;" horiz-adv-x="641" d="M20 817l525 616v-79l-342 -537l342 -537v-80z" />
<glyph unicode="=" horiz-adv-x="1220" d="M20 500v81h1099v-81h-1099zM20 911v81h1099v-81h-1099z" />
<glyph unicode="&#x3e;" horiz-adv-x="646" d="M20 200v80l342 537l-342 537v79l525 -616z" />
<glyph unicode="?" horiz-adv-x="1053" d="M20 0v184h182l1 -184h-183zM71 262v195q19 -5 40 -9q63 -9 134 9q77 21 152 71q78 52 147 130q68 77 118 174q47 93 72 193q22 98 16 186q-4 83 -34 150q-28 63 -71 99q-18 17 -36 26q-48 29 -109 32q-64 4 -139 -22q-76 -25 -151 -81v103q160 80 310 80q26 0 51 -3 q174 -15 273 -135q90 -109 90 -270q0 -15 -1 -31q-9 -182 -124 -365q-114 -180 -294.5 -297.5t-363.5 -130.5v-104h-80z" />
<glyph unicode="@" horiz-adv-x="1655" d="M-41 290q0 85 21 180q68 303 316.5 552.5t552.5 319.5q96 21 183 21q185 0 324 -99q202 -148 202 -436v-828h-183v348q-166 -210 -397.5 -300t-415.5 -16q-183 72 -226.5 273t74.5 430q117 227 338 369t435 128q-12 9 -22 15q-69 42 -156 49q-90 7 -193 -26 q-108 -36 -208 -109q-106 -77 -193 -184q-90 -110 -149 -238q-60 -124 -87 -259q-25 -130 -12 -246q12 -115 55 -200q39 -80 106 -133q15 -11 39 -25q78 -46 180 -46h1015v-66h-1064q-287 0 -433 201q-102 138 -102 325zM509 388q4 -84 34 -150q27 -63 71 -100 q19 -16 36 -26q48 -29 110 -32q67 -4 139 22q78 27 152 83q78 58 144 140q66 84 109 180q45 98 61 194q16 97 6 180q-11 82 -43 141q-32 56 -76 89q-47 33 -104 41q-64 9 -133 -9q-79 -22 -152 -71q-79 -51 -148 -129q-68 -78 -118 -174q-47 -93 -71 -194q-23 -98 -17 -185z " />
<glyph unicode="A" horiz-adv-x="1355" d="M20 0l616 1599l617 -1599h-199l-295 767h-378l-296 -767h-65zM406 833h327l-163 423z" />
<glyph unicode="B" horiz-adv-x="1350" d="M20 1v1598h199v-166q108 101 238 143q72 24 139 24q50 0 97 -15q107 -32 157 -128q34 -66 34 -146q0 -37 -8 -77q170 -12 272.5 -122t104.5 -283v-6q0 -170 -97 -347q-100 -180 -269 -306q-168 -127 -350 -159q-56 -10 -108 -10q-117 0 -210 49v-49h-199zM219 293 q7 -29 19 -55q27 -63 71 -99q17 -17 36 -26q48 -29 109 -32q9 -1 17 -1q57 0 122 23q78 26 154 82q76 58 143 141q65 82 109 180q43 94 61 194q10 58 10 112q0 35 -4 68q-11 82 -43 142q-32 56 -76 88q-48 32 -104 42q-20 2 -40 2q-46 0 -94 -12q-12 -3 -27 -9q24 66 31 123 q3 25 3 47q0 51 -14 93q-12 38 -35 65q-22 23 -48 34q-27 9 -60 9h-6q-44 -4 -89 -25q-49 -23 -98 -66q-50 -45 -87 -101q-39 -59 -60 -117v-902z" />
<glyph unicode="C" horiz-adv-x="1354" d="M-25 526q0 63 11 131q46 280 259 530q213 249 498 354q157 58 296 58q114 0 216 -39v-144q-32 38 -79 67q-69 42 -156 49q-13 1 -25 1q-82 0 -168 -28q-105 -34 -208 -108q-107 -79 -193 -184q-89 -110 -149 -238q-60 -125 -86 -259q-17 -88 -17 -169q0 -39 4 -77 q10 -112 55 -200q40 -82 107 -133q21 -16 38 -25q82 -47 185 -47h9q116 2 240 65q113 54 216 153v-114q-262 -169 -519 -169h-18q-267 7 -409 191q-107 140 -107 335z" />
<glyph unicode="D" horiz-adv-x="1359" d="M20 0v1599h199v-158q248 155 494 158h8q241 0 389 -149q143 -147 143 -383v-17q-5 -247 -163 -495t-407.5 -401.5t-494.5 -153.5h-168zM219 67q11 -1 33 -1q117 3 241 65q129 63 244 181q118 121 196 272q79 154 106 310q15 83 15 159q0 68 -12 131q-20 106 -69 184 q-48 74 -117 116q-70 41 -157 48q-16 1 -32 1q-75 0 -160 -26q-106 -36 -208 -110q-43 -30 -80 -64v-1266z" />
<glyph unicode="E" horiz-adv-x="1359" d="M20 0v1599h1233v-66h-1034v-700h600v-66h-600v-701h1034v-66h-1233z" />
<glyph unicode="F" horiz-adv-x="962" d="M20 0v1599h1233v-66h-1034v-700h600v-66h-600v-767h-199z" />
<glyph unicode="G" horiz-adv-x="1354" d="M-25 526q0 63 11 131q46 280 259 530q213 249 498 354q157 58 296 58q114 0 216 -39v-144q-32 38 -79 67q-69 42 -156 49q-13 1 -25 1q-82 0 -168 -28q-105 -34 -208 -108q-107 -79 -193 -184q-89 -110 -149 -238q-60 -125 -86 -259q-17 -88 -17 -169q0 -39 4 -77 q10 -112 55 -200q40 -82 107 -133q21 -16 38 -25q82 -47 185 -47h9q116 2 240 65q4 1 8 3t9 5v660h199v-629q-262 -169 -519 -169h-18q-267 7 -409 191q-107 140 -107 335z" />
<glyph unicode="H" horiz-adv-x="1340" d="M20 0v1599h199v-766h835v766h199v-1599h-199v767h-835v-767h-199z" />
<glyph unicode="I" horiz-adv-x="454" d="M145 0v1599h199v-1599h-199z" />
<glyph unicode="J" horiz-adv-x="563" d="M-439 1527v62h400l111 -22l81 -31l42 -23l25 -19q6 -4 13 -10l13 -9l75 -81q4 -7 9 -13l16 -29q4 -6 7 -13l34 -78l23 -110l2 -21v-1529h-190l-2 1515h-1l-9 79l-37 119l-50 83l-30 35l-63 49l-46 22l-33 10q-8 2 -18 4l-78 10h-294z" />
<glyph unicode="K" horiz-adv-x="1218" d="M20 0v1600h199v-821l821 821h93l-801 -800l801 -800h-282l-632 632v-632h-199z" />
<glyph unicode="L" horiz-adv-x="991" d="M20 -1v1601h198v-1477q95 15 176 14q108 1 194 -25q150 -46 293 -98t311 -80q48 -8 104 -8q139 0 325 49v-125q-187 -50 -327 -50q-55 0 -102 8q-168 27 -311 81q-143 55 -293 99q-86 26 -195 25q-81 0 -175 -14h-198z" />
<glyph unicode="M" horiz-adv-x="1360" d="M20 0v1599l579 -895l654 895v-1599h-199v1216l-543 -743l-427 658v-1131h-64z" />
<glyph unicode="N" horiz-adv-x="1372" d="M20 0v1601l1035 -1177v1177h199v-1601l-1170 1330v-1330h-64z" />
<glyph unicode="O" horiz-adv-x="1754" d="M42 524q0 67 13 141q55 327 326 598q271 270 597 326q74 13 142 13q229 0 377 -148t148 -377q0 -67 -13 -142q-56 -326 -326 -596q-272 -271 -599 -326q-74 -13 -141 -13q-229 0 -377 147q-147 149 -147 377zM230 471q11 -112 55 -200q41 -82 107 -133q21 -16 38 -25 q82 -47 186 -47h9q117 2 241 65q129 63 244 182q115 116 196 272q78 150 108 311q15 81 15 157q0 68 -12 132q-21 107 -70 185q-48 74 -117 116q-71 42 -157 49q-13 1 -25 1q-81 0 -167 -28q-106 -34 -209 -109q-103 -73 -193 -184q-89 -109 -150 -237q-60 -128 -86 -260 q-17 -87 -17 -169q0 -40 4 -78z" />
<glyph unicode="P" horiz-adv-x="1169" d="M20 0v1600h199v-258q165 181 378 239q78 21 147 21q119 0 211 -63q145 -98 145 -299t-145 -396q-147 -196 -359 -281q-114 -46 -214 -46q-86 0 -163 34v-551h-199zM219 751q9 -27 25 -52q26 -41 66 -66q0 -1 1 -1.5t2 -0.5q39 -22 83 -25q10 -1 19 -1q42 0 88 14 q63 19 122 60q65 44 118 105q54 60 98 139q54 102 73 206q10 52 10 102q0 44 -8 86q-14 64 -44 109q-28 41 -68 64q-43 22 -91 23h-13q-51 0 -106 -21q-65 -24 -132 -75q-67 -53 -122 -125q-57 -77 -91 -160q-19 -44 -30 -85v-296z" />
<glyph unicode="Q" horiz-adv-x="1718" d="M20 539q0 281 203 564q216 301 541 430q169 67 317 67q136 0 255 -57q247 -118 275 -415q3 -35 3 -70q0 -262 -183 -532q-208 -305 -531 -445l8 -6l8 -6q154 -115 348 -115t350 115v-65q-156 -116 -349 -116q-195 0 -349 116q-34 26 -77 53q-155 -55 -290 -55 q-149 0 -275 68q-238 128 -253 430q-1 19 -1 39zM222 473q9 -94 42 -172q311 -13 571 -177q7 3 20 9q128 64 244 181q114 118 194 271q79 151 108 310q14 81 14 157q0 67 -11 131q-20 103 -70 184q-48 73 -117 115q-71 42 -155 49q-16 1 -33 1q-77 0 -159 -27 q-106 -34 -208 -108q-107 -79 -192 -184q-88 -108 -149 -236q-60 -126 -86 -259q-17 -87 -17 -168q0 -39 4 -77zM277 233q33 -54 83 -92q19 -16 38 -26q79 -46 178 -46h16q73 1 154 28q-220 118 -469 136z" />
<glyph unicode="R" horiz-adv-x="1248" d="M20 0v1599h199v-259q165 181 378 239q78 21 147 21q119 0 211 -62q145 -98 145 -299.5t-145 -396.5q-147 -195 -359 -280q-114 -46 -214 -46q-86 0 -163 34v-183q120 -15 230 -47q107 -42 208 -102q94 -68 173 -146q80 -85 151 -147q88 -62 180 -106q99 -38 208 -58 q72 -7 145 -7q40 0 81 2l5 -104q-56 -4 -114 -4q-63 0 -128 5q-114 19 -225 55q-101 45 -197 107q-87 68 -159 147.5t-159 147.5q-91 58 -191 102q-103 33 -208 51v-263h-199zM219 750q9 -28 25 -52q27 -44 66 -66q0 -1 1 -1.5t2 -0.5q36 -22 83 -25q11 -1 22 -1q40 0 85 14 q62 18 122 60q62 40 119 104q56 64 97 140q55 103 74 206q9 50 9 98q0 45 -8 89q-14 65 -44 110q-29 42 -67 63q-42 23 -92 24h-9q-50 0 -109 -21q-67 -24 -132 -76q-71 -55 -123 -125q-56 -74 -91 -159q-20 -48 -30 -86v-295z" />
<glyph unicode="S" horiz-adv-x="1322" d="M20 88v93q33 -28 79 -48q69 -31 149 -39q38 -5 77 -5q49 0 100 8q90 13 177 48q88 36 153 87q65 48 108 109q36 53 51 110q6 25 6 49t-6 48l-1 3q-11 42 -44 80q-34 39 -89 69q-94 44 -190 68t-178.5 59t-145 96t-88.5 180q-9 37 -9 73q-1 98 63 190q86 126 260 193 q141 56 299 56q34 0 69 -3q196 -15 345 -105v-95q-32 28 -80 50q-70 30 -148 39q-36 4 -73 4q-50 0 -104 -7q-93 -15 -177 -49q-83 -34 -153 -86q-68 -52 -108 -110q-38 -53 -51 -110q-6 -27 -6 -52q-1 -24 5 -46q12 -45 45 -82q34 -41 89 -69q74 -36 171.5 -59t189.5 -62.5 t161.5 -110t85.5 -202.5q2 -20 3 -40q0 -113 -79 -213q-92 -118 -263 -179q-135 -47 -282 -47q-39 0 -78 4q-189 15 -333 103z" />
<glyph unicode="T" horiz-adv-x="1346" d="M20 1535v66h1234v-66h-517v-1535h-200v1535h-517z" />
<glyph unicode="U" horiz-adv-x="1370" d="M20 415v1186h182v-1180q0 -8 0.5 -16.5t1.5 -16.5q4 -84 34 -150q25 -61 71 -100q15 -14 36 -25q47 -29 110 -32q9 -1 18 -1q58 0 121 22q79 28 154 83q76 58 142 141q67 84 110 180q44 94 61 194q10 57 10 114v787h183v-1601h-183v349q-134 -169 -317 -263 q-168 -86 -325 -86q-16 0 -31 1q-174 11 -276 124t-102 290z" />
<glyph unicode="V" horiz-adv-x="1346" d="M20 1600h199l484 -1256l485 1256h65l-617 -1600z" />
<glyph unicode="W" horiz-adv-x="1722" d="M20 1600h199l367 -1469l301 1202l300 -1202l367 1469h66l-401 -1600h-199l-200 803l-201 -803h-199z" />
<glyph unicode="X" horiz-adv-x="1368" d="M20 0l548 751l-548 849h199l455 -704l514 704h65l-548 -751l548 -849h-199l-455 704l-515 -704h-64z" />
<glyph unicode="Y" horiz-adv-x="1306" d="M20 1600h199l455 -704l514 704h65l-517 -708v-892h-199v800z" />
<glyph unicode="Z" horiz-adv-x="1319" d="M20 0l992 1534h-847v66h1088l-992 -1534h992v-66h-1233z" />
<glyph unicode="[" horiz-adv-x="500" d="M20 0v1601h398v-66h-199v-1469h199v-66h-398z" />
<glyph unicode="\" horiz-adv-x="1093" d="M20 1600h199l597 -1600h-199z" />
<glyph unicode="]" horiz-adv-x="539" d="M20 0v66h199v1469h-199v66h398v-1601h-398z" />
<glyph unicode="^" horiz-adv-x="963" d="M20 1586v80l434 183l434 -183v-80l-434 80z" />
<glyph unicode="_" horiz-adv-x="1992" d="M20 12v88h1875v-88h-1875z" />
<glyph unicode="`" horiz-adv-x="1187" d="M20 1815v234l1111 -234v-103z" />
<glyph unicode="a" horiz-adv-x="1308" d="M-27 411q0 114 50 242q86 219 281 380.5t411 190.5q42 6 81 6q160 0 272 -93q135 -115 135 -318v-819h-183v347q-157 -198 -376 -290q-137 -57 -260 -57q-73 0 -141 20q-183 56 -244 235q-26 74 -26 156zM157 387q4 -82 34 -150q28 -63 71 -99q17 -17 36 -26 q45 -27 109 -32q9 -1 17 -1q57 0 121 23q76 26 153 82q78 60 143 140q66 84 108 179q45 98 61 194q10 60 10 114q0 34 -4 66q-11 81 -42 140q-31 55 -77 88t-103 42q-19 3 -40 3q-44 0 -93 -13q-77 -21 -152 -70q-78 -52 -146 -129q-67 -77 -118 -173q-48 -96 -71 -194 q-18 -77 -18 -148q0 -18 1 -36z" />
<glyph unicode="b" horiz-adv-x="1341" d="M20 1v1601h182v-714q182 230 437 314q110 36 207 36q126 0 228 -62q180 -111 180 -352q0 -240 -180 -470q-180 -231 -435 -316q-113 -38 -212 -38q-124 0 -225 60v-59h-182zM204 390q4 -83 34 -151q26 -61 71 -100q17 -16 36 -25q47 -29 110 -32q9 -1 18 -1q56 0 121 22 q75 26 154 83q78 60 142 141q65 83 110 179q44 99 61 195q10 60 10 115q0 34 -4 66q-10 78 -43 141q-30 55 -77 90q-47 33 -103 40q-22 3 -45 3q-43 0 -89 -12q-77 -21 -152 -71q-79 -52 -148 -130q-67 -76 -118 -173q-48 -96 -72 -195q-17 -77 -17 -147q0 -19 1 -38z" />
<glyph unicode="c" horiz-adv-x="1084" d="M-15 404q0 49 9 101q35 216 200 408q166 192 386 273q119 44 225 44q89 0 169 -31v-164q-29 43 -65 70q-45 32 -103 41q-20 3 -41 3q-44 0 -92 -12q-77 -21 -152 -71q-78 -51 -146 -129q-68 -77 -118 -174q-47 -92 -71 -192q-18 -78 -18 -149q0 -18 1 -36q4 -83 34 -150 q28 -63 71 -99q17 -16 36 -26q47 -28 109 -32h15q59 0 123 21q79 28 153 84q45 33 88 78v-130q-203 -132 -402 -132h-12q-206 4 -316 146q-83 108 -83 258z" />
<glyph unicode="d" horiz-adv-x="1393" d="M20 412q0 240 180 471q179 230 434 316q113 38 212 38q124 0 225 -60v423h183v-1599h-183v348q-182 -230 -437 -313q-111 -36 -207 -36q-126 0 -227 62q-180 110 -180 350zM204 389q4 -82 34 -150q26 -62 72 -100q16 -16 36 -26q46 -28 109 -32q9 -1 17 -1q57 0 122 23 q75 26 153 83q78 60 143 140q65 83 109 180q45 98 61 194q11 62 11 117q0 33 -4 64q-11 81 -43 141q-31 55 -77 89q-47 33 -104 41q-21 3 -43 3q-44 0 -90 -12q-77 -21 -152 -71q-79 -52 -148 -130q-67 -76 -118 -173q-48 -96 -71 -195q-18 -77 -18 -148q0 -19 1 -37z" />
<glyph unicode="e" horiz-adv-x="1319" d="M19 408v2q0 189 117 382q118 192 310 314t384 126h13q182 0 295 -112q114 -114 114 -300v-7l-1051 -393q0 -11 2 -33q4 -84 34 -150q28 -64 71 -100q17 -16 36 -26q47 -29 109 -32q9 -1 17 -1q57 0 122 23q76 26 154 83q45 33 88 79v-131q-191 -124 -383 -131 q-12 -1 -24 -1q-176 0 -288 105q-119 112 -120 303zM208 508l861 323q-2 18 -4 47q-11 82 -43 141q-30 56 -76 89q-47 33 -104 42q-19 2 -40 2q-45 0 -94 -12q-77 -21 -152 -71q-78 -51 -147 -129q-67 -77 -118 -173q-48 -95 -72 -195q-7 -34 -11 -64z" />
<glyph unicode="f" horiz-adv-x="674" d="M18 0v704q0 163 91 333q92 172 250 299q158 126 334 169q78 19 148 19q89 0 168 -30v-164q-27 42 -65 69q-45 32 -103 42q-19 2 -40 2q-45 0 -94 -12q-77 -21 -152 -71q-79 -51 -147 -129q-68 -77 -118 -174q-48 -93 -72 -194q-18 -80 -18 -152h217v-80h-217v-631h-182z " />
<glyph unicode="g" horiz-adv-x="1310" d="M-28 433q0 64 16 137q50 228 240 414q188 185 416 230q64 13 121 13q148 0 254 -84l48 85h88l-80 -141q80 -105 80 -257v-18q-5 -165 -103 -330l-198 -345q90 -5 157 -50t93 -124q14 -45 14 -97q0 -39 -8 -82q-19 -99 -79 -192h-157q8 16 17 29t17 28q33 77 49 162 q1 18 1 35q0 54 -12 99q-18 44 -36 61q-18 23 -46 34q-24 5 -49 5h-15q-18 -3 -40 -7t-45 -14q-16 -10 -26 -15l113 195q-208 -157 -427 -160h-7q-214 0 -322 145q-74 104 -74 244zM149 415q2 -87 30 -144q24 -59 70 -98q8 -7 17 -12.5t16 -10.5q44 -28 106 -31q9 -1 19 -1 q50 0 115 22q67 20 146 80q67 49 139 133q62 80 106 173q41 100 57 188q10 60 10 115q0 29 -3 57q-12 74 -41 136q-31 52 -74 85q-42 28 -101 41q-18 2 -37 2q-44 0 -92 -12q-69 -21 -144 -67q-77 -51 -141 -126q-70 -77 -114 -167q-51 -100 -69 -185q-18 -67 -18 -128 q0 -26 3 -50z" />
<glyph unicode="h" horiz-adv-x="1355" d="M20 0v1599h183v-713q134 170 318 264q165 85 321 85q18 0 36 -2q173 -12 275 -126q100 -112 100 -284v-823h-183v815q0 39 -4 64q-11 82 -43 142q-30 55 -76 89q-46 32 -104 41q-20 3 -41 3q-45 0 -93 -12q-78 -22 -152 -71q-77 -51 -146 -130q-67 -76 -119 -173 q-49 -96 -71 -194q-18 -76 -18 -152v-422h-183z" />
<glyph unicode="i" horiz-adv-x="525" d="M219 1475q0 8 2 17q6 37 37 68q30 31 68 37q8 2 16 2q27 0 44 -17q16 -17 16 -43q0 -8 -1 -17q-7 -37 -37 -68q-30 -32 -68 -38q-9 -1 -17 -1q-26 0 -43 17t-17 43zM220 0v1234h183v-1234h-183z" />
<glyph unicode="j" horiz-adv-x="500" d="M214 1478q0 7 2 15q6 38 37 69q30 30 68 38h16q27 0 44 -16q16 -17 16 -43q0 -8 -1 -16q-7 -38 -37 -68q-31 -31 -69 -38q-8 -2 -16 -2q-26 0 -43 18q-17 16 -17 43zM215 -401v1637h183v-1637h-183z" />
<glyph unicode="k" horiz-adv-x="1366" d="M20 0v1599h183v-1037q56 26 110 66q78 58 143 140q64 82 110 180q42 92 61 194q8 47 9 92h183q-13 -230 -182 -443q110 37 207 37q128 0 232 -64q177 -112 177 -349v-415h-183v402v11q0 29 -4 59q-11 81 -43 141q-30 55 -76 89q-46 32 -104 41q-20 3 -41 3q-43 0 -93 -12 q-78 -22 -152 -71q-77 -51 -146 -130q-67 -76 -119 -173q-49 -96 -71 -194q-18 -80 -18 -152v-14h-183z" />
<glyph unicode="l" horiz-adv-x="602" d="M203 0v1599h183v-1599h-183z" />
<glyph unicode="m" horiz-adv-x="2405" d="M20 0v1233h183v-347q126 159 299.5 253.5t342.5 94.5q166 -2 276 -97t129 -256q133 170 318 266q166 86 323 86q17 0 35 -1q174 -11 276 -125.5t102 -292.5v-814h-183v814q0 31 -4 65q-10 79 -43 141q-31 56 -77 89t-103 42q-20 2 -40 2q-46 0 -94 -12q-78 -21 -153 -71 q-78 -52 -146 -129q-70 -80 -118 -173q-49 -95 -72 -195q-18 -75 -18 -152v-421h-183v814q0 31 -4 65q-11 82 -43 141q-30 56 -76 89q-47 33 -104 42q-19 2 -39 2q-45 0 -94 -12q-78 -21 -152 -71q-79 -51 -148 -129q-67 -77 -118 -173q-48 -95 -71 -195q-18 -80 -18 -152 v-421h-183z" />
<glyph unicode="n" horiz-adv-x="1346" d="M20 0v1233h182v-347q134 169 319 264q163 84 319 84q19 0 38 -2q172 -11 275 -124q100 -112 100 -278v-830h-183v814q0 31 -4 65q-10 79 -43 141q-30 56 -76 89q-47 33 -104 42q-19 2 -40 2q-45 0 -94 -12q-77 -21 -152 -71q-78 -51 -147 -129q-67 -77 -118 -173 q-48 -95 -72 -195q-18 -80 -18 -152v-421h-182z" />
<glyph unicode="o" horiz-adv-x="1307" d="M-24 403q0 52 10 109q43 252 251 461q209 208 461 252q57 9 109 9q176 0 290 -114t114 -290q0 -52 -9 -109q-44 -252 -252 -460q-209 -209 -461 -252q-57 -9 -109 -9q-177 0 -291 113q-113 114 -113 290zM161 388q4 -83 34 -151q28 -62 71 -99q18 -16 36 -26 q48 -29 109 -32q9 -1 19 -1q58 0 120 22q81 29 153 84q79 59 143 140q66 83 110 180q44 98 61 194q9 59 9 114q0 33 -3 66q-10 79 -43 141q-32 56 -76 89q-46 32 -104 42q-19 2 -40 2q-45 0 -94 -12q-78 -22 -152 -71q-78 -51 -147 -129q-70 -81 -118 -174q-50 -98 -72 -194 q-17 -77 -17 -147q0 -19 1 -38z" />
<glyph unicode="p" horiz-adv-x="1347" d="M20 -400v1704h183v-348q181 229 436 314q110 35 206 35q127 0 229 -62q179 -110 179 -350t-179 -471q-180 -230 -435 -315q-113 -38 -211 -38q-124 0 -225 60v-529h-183zM204 458q4 -84 34 -150q25 -60 71 -99q15 -15 36 -26q49 -29 109 -32q9 -1 19 -1q58 0 120 22 q79 27 154 84q73 53 143 139q65 83 109 180q43 95 61 195q10 57 10 111q0 35 -4 69q-11 82 -43 141q-32 56 -76 89q-46 32 -104 41q-20 3 -41 3q-45 0 -93 -13q-74 -19 -152 -70q-77 -51 -146 -130q-68 -77 -119 -174q-48 -94 -71 -193q-18 -79 -18 -153q0 -17 1 -33z" />
<glyph unicode="q" horiz-adv-x="1338" d="M20 482q0 240 179 470q180 229 435 315q112 38 211 38q123 0 225 -60v59h183v-1704h-183v818q-182 -230 -436 -313q-110 -36 -206 -36q-126 0 -229 63q-179 110 -179 350zM204 458q4 -82 34 -150q27 -63 71 -99q17 -17 36 -26q47 -29 109 -32q9 -1 19 -1q58 0 120 22 q77 26 154 84q75 56 143 139q65 83 109 180q44 99 61 195q10 60 10 114q0 34 -4 66q-11 82 -43 141q-32 56 -76 89q-48 32 -104 41q-21 3 -42 3q-45 0 -92 -13q-73 -19 -152 -70q-78 -52 -147 -130q-68 -78 -118 -174q-47 -92 -72 -193q-17 -77 -17 -148q0 -19 1 -38z" />
<glyph unicode="r" horiz-adv-x="1116" d="M20 0v1233h182v-347q164 208 395 298q129 51 243 51q90 0 171 -31v-163q-27 41 -65 68q-46 33 -103 42q-19 2 -40 2q-45 0 -94 -12q-77 -21 -152 -71q-79 -51 -147 -129q-67 -77 -118 -173q-48 -95 -72 -195q-18 -80 -18 -152v-421h-182z" />
<glyph unicode="s" horiz-adv-x="1187" d="M20 10v102q40 -12 85 -14q12 -1 25 -1q57 0 113 12q67 11 134 43q76 35 131 88q50 47 73 101q14 35 14 67q0 15 -5 32q-7 27 -26 51q-23 27 -56 47q-24 13 -51 23q-187 65 -257 203q-31 61 -31 123q0 76 49 151q88 133 283 185q92 25 183 25q102 0 203 -31v-102 q-42 10 -89 14q-13 1 -26 1q-56 0 -111 -11q-71 -15 -135 -44q-78 -37 -131 -88q-51 -50 -72 -101q-14 -33 -14 -63v-8q1 -15 4 -28q8 -29 27 -51q22 -28 56 -46q23 -15 51 -24q186 -66 256 -204q31 -62 31 -122q0 -76 -48 -150q-87 -134 -281 -186q-92 -24 -184 -24 q-101 0 -201 30z" />
<glyph unicode="t" horiz-adv-x="927" d="M18 408v1191h183v-365h633v-80h-633v-733q0 -22 1 -33q4 -84 34 -150q26 -61 71 -100q15 -14 36 -25q49 -29 110 -32q9 -1 17 -1q57 0 121 23q78 26 154 82q44 33 89 79v-131q-142 -93 -290 -121q-60 -12 -116 -12q-82 0 -153 25q-122 42 -190 145q-67 101 -67 238z" />
<glyph unicode="u" horiz-adv-x="1358" d="M18 409v824h182v-812q0 -12 2 -33q4 -84 34 -150q28 -64 71 -100q17 -16 36 -26q47 -29 109 -32q9 -1 17 -1q57 0 122 23q76 26 154 83q78 60 143 140q66 84 109 180q44 98 61 194q10 57 10 115v419h183v-1233h-183v348q-134 -169 -317 -262q-168 -86 -324 -86 q-16 0 -32 1q-173 11 -276 124q-101 110 -101 284z" />
<glyph unicode="v" horiz-adv-x="1338" d="M18 409v824h182v-813q0 -11 2 -32q4 -83 34 -151q28 -63 71 -99q17 -16 36 -26q47 -29 109 -32q9 -1 19 -1q58 0 120 22q80 28 154 84q78 60 143 140q66 84 109 180q44 98 61 194q10 57 10 115v419h183v-411q0 -153 -79 -312q-82 -164 -225 -291q-144 -127 -310 -182 q-109 -37 -208 -37q-52 0 -102 10q-145 30 -228 139q-81 106 -81 260z" />
<glyph unicode="w" horiz-adv-x="2425" d="M18 410v825h183v-813q0 -12 1 -33q4 -82 34 -150q26 -62 71 -100q17 -16 36 -26q47 -28 110 -32q9 -1 17 -1q57 0 121 23q76 26 154 83q78 60 143 140q66 84 109 180q44 98 61 194q10 57 10 115v420h183v-813q0 -23 1 -33q6 -86 34 -150q27 -61 71 -100q18 -16 36 -26 q49 -28 109 -32q9 -1 17 -1q57 0 122 23q77 26 154 83q79 59 143 140q68 87 110 180t60 194q11 57 11 115v420h183v-410q0 -229 -165 -453q-169 -227 -416 -323q-129 -49 -242 -49q-104 0 -193 41q-189 88 -215 312q-133 -170 -317 -265q-167 -87 -326 -87q-15 0 -31 1 q-173 10 -277 123q-102 111 -102 285z" />
<glyph unicode="x" horiz-adv-x="1642" d="M20 48v144q16 -24 32 -32q8 -8 17.5 -14.5t17.5 -12.5q48 -29 106 -29q12 -1 23 -1q56 0 113 20q67 21 150 82q80 59 139 137q69 85 106 176q46 98 62 189q7 64 7 121q0 28 -2 55q-13 78 -43 139q-34 56 -74 85q-46 32 -102 40q-18 2 -37 2q-44 0 -93 -10 q-83 -26 -147 -69q-51 -32 -86 -64l-64 75q160 112 329 138q48 11 106 11q171 0 283 -112q80 -83 104 -195q8 11 24 27q200 200 448 245q27 3 53.5 7t53.5 4q16 0 24 -3v-85q-8 0 -16 1.5t-13 3.5q-19 2 -39 2q-45 0 -92 -10q-88 -29 -149 -69q-78 -53 -145 -128 q-34 -40 -62 -83t-52 -85q-51 -102 -70 -190q-19 -71 -19 -134q0 -24 3 -47q3 -86 32 -147q30 -67 70 -96q29 -24 37 -27q43 -29 104 -32q10 -1 20 -1q55 0 116 23q72 24 144 77l59 -69q-131 -78 -261 -99q-57 -8 -107 -8q-174 0 -283 109q-80 78 -104 195l-13.5 -13.5 l-10.5 -10.5q-208 -208 -451 -245q-51 -11 -104 -11q-80 0 -144 24z" />
<glyph unicode="y" horiz-adv-x="1349" d="M18 479v825h182v-813q0 -11 2 -33q4 -83 34 -150q27 -63 71 -99q17 -17 36 -26q47 -29 109 -32q9 -1 19 -1q58 0 120 22q77 26 154 83q75 56 143 140q65 83 109 180q44 98 61 194q10 57 10 116v419h183v-1704h-183v818q-134 -169 -318 -263q-165 -85 -322 -85 q-16 0 -33 1q-173 11 -276 124q-101 111 -101 284z" />
<glyph unicode="z" d="M20 0l982 1154h-842v79h1093l-982 -1153h982v-80h-1233z" />
<glyph unicode="{" horiz-adv-x="719" d="M20 700v199h199v700h399v-66h-200v-1467h200v-66h-399v700h-199z" />
<glyph unicode="|" horiz-adv-x="108" d="M20 -400v2069h65v-2069h-65z" />
<glyph unicode="}" horiz-adv-x="720" d="M20 0v66h200v1467h-200v66h399v-700h199v-199h-199v-700h-399z" />
<glyph unicode="~" horiz-adv-x="1187" d="M20 1944v102h1111v-102h-1111z" />
<glyph unicode="&#xa1;" horiz-adv-x="288" d="M20 0l34 1234h131l34 -1234h-199zM20 1400v199h199v-199h-199z" />
<glyph unicode="&#xa2;" horiz-adv-x="1074" d="M-15 406q0 48 9 101q35 217 201 410q166 192 387 273q119 44 226 44q89 0 169 -31v-164q-29 43 -65 69q-34 25 -71 35l-343 -1058q27 4 61 16q80 28 154 83q45 34 88 79v-131q-204 -132 -404 -132h-12q-207 4 -317 147q-83 108 -83 259zM170 387q4 -83 33 -151 q28 -63 72 -99q16 -16 36 -25q22 -14 54 -23l342 1058q-8 -2 -16 -3.5t-16 -3.5q-77 -21 -152 -71q-79 -51 -147 -129q-68 -77 -118 -174q-48 -93 -72 -193q-22 -99 -16 -186z" />
<glyph unicode="&#xa3;" horiz-adv-x="1331" d="M17 1v537q0 203 110 415q111 216 305 380q193 164 413 230q124 37 237 37q87 0 168 -23v-116q-18 14 -33 23q-70 41 -156 48q-89 7 -192 -25q-107 -35 -209 -110q-106 -77 -192 -184q-89 -108 -150 -237q-59 -125 -86 -259q-16 -88 -16 -169v-135h689v-65h-689v-92h689 v-66h-689v-124h1034v-65h-1233z" />
<glyph unicode="&#xa5;" horiz-adv-x="1359" d="M20 1599h199l455 -703l514 703h65l-517 -708v-264h199v-66h-199v-231h199v-65h-199v-265h-199v265h-200v65h200v231h-200v66h200v173z" />
<glyph unicode="&#xa7;" horiz-adv-x="970" d="M74 734q0 27 7 57q22 95 109.5 172t203.5 111q-117 82 -84 221q28 120 154.5 208.5t279.5 95.5l26 -73q-32 -4 -67 -14q-48 -14 -96 -43q-46 -28 -85 -66q-45 -45 -71 -98q-25 -49 -25 -91q-2 -32 8 -55q3 -7 10 -19q13 -19 32 -29q23 -14 53 -19q21 -4 43 -4 q150 2 237 -79q65 -62 65 -145q0 -27 -6 -55q-22 -96 -109.5 -173.5t-204.5 -110.5q117 -83 85 -220q-28 -120 -154 -208.5t-278 -96.5l-26 74q29 1 64 13q48 13 96 43q47 28 85 66q45 44 72 98q24 48 25 91q1 31 -8 55q-3 7 -11 19q-13 17 -32 30q-24 13 -53 18 q-21 4 -42 4q-152 -3 -238 79q-65 61 -65 144zM196 709q-2 -32 8 -54q5 -12 10 -20q15 -19 33 -29q21 -14 52 -19q23 -5 43 -3q38 0 73 -5q25 2 60 13q47 13 97 43q48 29 85 66q46 47 71 98q22 46 25 91q1 31 -8 54q-6 12 -11 20q-14 17 -32 29q-25 14 -52 19q-23 4 -43 4 q-38 -2 -73 5q-28 -4 -60 -14q-48 -14 -97 -43q-49 -30 -85 -66q-47 -47 -71 -97q-25 -51 -25 -92z" />
<glyph unicode="&#xa8;" horiz-adv-x="1437" d="M20 1891q0 10 2 21q8 48 48 88q39 39 87 47q11 2 21 2q33 0 55 -21q28 -28 19.5 -76.5t-47.5 -87.5q-39 -40 -87 -48q-11 -2 -21 -2q-34 0 -55 22q-22 22 -22 55zM392 1912q8 48 48 88q39 39 88 47q11 2 21 2q33 0 55 -21q21 -21 21 -55q0 -10 -1 -21q-9 -49 -48 -88 q-40 -40 -88 -48q-11 -2 -20 -2q-34 0 -56 22q-28 28 -20 76z" />
<glyph unicode="&#xa9;" horiz-adv-x="451" d="M7 1462q0 15 3 31q12 72 72 132q59 59 132 72q16 3 31 3q51 0 83 -33q33 -32 33 -83q0 -15 -3 -31q-13 -73 -72 -132q-60 -60 -132 -72q-16 -3 -31 -3q-51 0 -83 33q-33 32 -33 83zM39 1466l1 -8v-15l2 -7l2 -8l1 -7l3 -6l2 -7l3 -6l3 -6l3 -6l4 -5l3 -5l5 -4l4 -5l4 -4 l6 -3l5 -4l6 -2l5 -3l6 -2l6 -2l6 -1l7 -1l6 -1h13l7 1l6 2l7 1l7 2l7 2l7 2l7 4l7 3l7 4l7 4l7 5l7 5l7 5l7 6l6 6l7 6l6 6l6 7l6 8l6 7l6 8l5 8l5 9l4 9l5 8l4 9l4 8l3 10l3 8l3 9l2 8l1 9l2 9l2 8v9l1 8v17l-1 8v7l-2 7l-2 7l-1 7l-2 7l-3 7l-3 6l-3 5l-3 6l-3 5l-4 6 l-5 4l-4 4l-4 4l-6 4l-5 3l-6 3l-5 3l-6 2l-6 2l-6 1l-6 1h-20l-6 -1l-7 -1l-7 -1l-7 -3l-7 -2l-7 -2l-7 -3l-7 -3l-7 -4l-7 -4l-7 -5l-7 -5l-7 -5l-7 -6l-6 -6l-7 -6l-6 -7l-6 -7l-6 -7l-6 -8l-6 -8l-5 -7l-5 -9l-4 -9l-5 -8l-4 -10l-4 -8l-3 -9l-3 -8l-2 -10l-3 -8l-1 -9 l-2 -8l-2 -9v-9l-1 -7v-9zM104 1440q-45 57 22 134q65 77 136 50v-18q-10 7 -11 8q-10 7 -21 7q-14 0 -26 -4q-15 -5 -28 -14q-12 -9 -26 -25q-11 -13 -20 -32q-8 -17 -12 -35q-3 -19 -1 -33q1 -17 7 -27q6 -13 15 -18l2 -2l2 -2q13 -6 27 -6q17 1 32 9q14 7 29 21v-16 q-84 -54 -127 3z" />
<glyph unicode="&#xaa;" horiz-adv-x="455" d="M6 1465q0 32 15 70q24 63 80 109t119 55q11 1 22 1q47 0 79 -26q39 -34 39 -94v-233h-53v100q-45 -58 -108 -84q-39 -16 -74 -16q-22 0 -41 6q-53 16 -70 67q-8 21 -8 45zM59 1458q1 -23 10 -43q8 -17 20 -28q4 -5 11 -8q14 -9 31 -9q19 -1 40 6q22 8 44 24q23 18 41 40 q20 26 31 51q13 29 18 56q4 28 1 52q-4 25 -12 40t-22 26q-16 9 -30 12q-18 2 -38 -3q-24 -7 -44 -21q-21 -14 -42 -36q-18 -21 -33 -50q-14 -28 -21 -56t-5 -53z" />
<glyph unicode="&#xab;" horiz-adv-x="881" d="M20 817l525 616v-79l-342 -537l342 -537v-80zM270 817l525 616v-79l-342 -537l342 -537v-80z" />
<glyph unicode="&#xac;" horiz-adv-x="738" d="M20 1694v106h617v-366h-105v260h-512z" />
<glyph unicode="&#xad;" horiz-adv-x="963" d="M20 717v183h867v-183h-867z" />
<glyph unicode="&#xae;" horiz-adv-x="509" d="M7 1462q0 15 3 31q12 72 72 132q59 59 132 72q16 3 31 3q51 0 83 -33q33 -32 33 -83q0 -15 -3 -31q-13 -73 -72 -132q-60 -60 -132 -72q-16 -3 -31 -3q-51 0 -83 33q-33 32 -33 83zM39 1466l1 -8v-15l2 -7l2 -8l1 -7l3 -6l2 -7l3 -6l3 -6l3 -6l4 -5l3 -5l5 -4l4 -5l4 -4 l6 -3l5 -4l6 -2l5 -3l6 -2l6 -2l6 -1l7 -1l6 -1h13l7 1l6 2l7 1l7 2l7 2l7 2l7 4l7 3l7 4l7 4l7 5l7 5l7 5l7 6h-1q-12 9 -21.5 19.5t-20.5 19.5q-13 8 -26 14q-14 5 -28 7v-36h-27v216h27v-35q52 57 99 27q45 -32 0 -94q-47 -62 -99 -39v-25q17 -3 30 -7q14 -4 29 -13 q14 -11 23 -19l20 -21q2 -1 3 -2t3 -2l2 2l6 6l6 7l6 8l6 7l6 8l5 8l5 9l4 9l5 8l4 9l4 8l3 10l3 8l3 9l2 8l1 9l2 9l2 8v9l1 8v17l-1 8v7l-2 7l-2 7l-1 7l-2 7l-3 7l-3 6l-3 5l-3 6l-3 5l-4 6l-5 4l-4 4l-4 4l-6 4l-5 3l-6 3l-5 3l-6 2l-6 2l-6 1l-6 1h-20l-6 -1l-7 -1 l-7 -1l-7 -3l-7 -2l-7 -2l-7 -3l-7 -3l-7 -4l-7 -4l-7 -5l-7 -5l-7 -5l-7 -6l-6 -6l-7 -6l-6 -7l-6 -7l-6 -7l-6 -8l-6 -8l-5 -7l-5 -9l-4 -9l-5 -8l-4 -10l-4 -8l-3 -9l-3 -8l-2 -10l-3 -8l-1 -9l-2 -8l-2 -9v-9l-1 -7v-9zM145 1520q1 -6 3 -7q3 -6 9 -9q7 -4 11 -4 q6 -1 15 2q10 3 17 8q8 6 15 14q6 6 13 19q7 12 11 28q2 14 0 25q-4 10 -7 14q-4 6 -8 9q-6 3 -13 3t-16 -2q-8 -4 -17 -10q-9 -7 -17 -18q-7 -9 -12 -21q-3 -7 -4 -11v-40z" />
<glyph unicode="&#xb0;" horiz-adv-x="439" d="M7 1354q0 15 4 33q12 74 74 135q61 62 136 75q17 3 32 3q52 0 86 -34t34 -86q0 -15 -3 -32q-13 -75 -75 -136q-61 -62 -135 -74q-18 -4 -33 -4q-52 0 -86 34t-34 86zM115 1376q-3 -25 4 -47q3 -8 9 -13q0 -1 0.5 -2t1.5 -1q5 -2 8 -2q10 0 17 1q10 4 26 12q27 17 49 47 q21 29 31 66q8 31 4 56q-4 15 -9 22q-3 4 -7 7q-6 2 -14 2q-12 -2 -29 -10q-20 -11 -37 -28q-20 -21 -32 -45q-17 -31 -22 -65z" />
<glyph unicode="&#xb1;" horiz-adv-x="1061" d="M20 200v200h925v-200h-925zM20 887v198h362v364h200v-364h363v-198h-363v-364h-200v364h-362z" />
<glyph unicode="&#xb4;" horiz-adv-x="1187" d="M20 1712v103l1111 234v-234z" />
<glyph unicode="&#xb6;" horiz-adv-x="1315" d="M-5 1116q0 29 6 63q24 147 146 268q76 76 165 115q84 37 161 37h756v-106h-185v-1493h-199v1493h-163v-1493h-199v966q-113 -78 -231.5 -85t-190.5 66q-66 66 -66 169z" />
<glyph unicode="&#xba;" horiz-adv-x="472" d="M7 1462q0 15 3 31q12 72 72 132q59 59 132 72q16 3 31 3q51 0 83 -33q33 -32 33 -83q0 -15 -3 -31q-13 -73 -72 -132q-60 -60 -132 -72q-16 -3 -31 -3q-51 0 -83 33q-33 32 -33 83zM60 1459l1 -7l1 -6v-6l2 -7l1 -6l2 -5l2 -6l2 -5l3 -5l2 -5l3 -4l4 -3l3 -4l3 -3l4 -4 l4 -3l4 -2l3 -2l5 -2l4 -2l5 -1l5 -1l5 -1h15l6 1l5 1l7 1l5 1l6 3l7 2l6 2l6 3l6 4l7 3l6 5l6 4l6 5l6 5l6 6l6 5l6 6l5 7l6 7l5 7l5 7l5 7l5 8l5 8l3 9l4 7l3 8l4 9l3 8l2 7l2 9l1 8l2 8l1 7l1 7v22l-1 7l-1 7v6l-2 7l-1 6l-2 5l-2 6l-2 5l-3 5l-2 4l-3 5l-4 3l-3 4l-3 4 l-4 2l-4 3l-4 2l-3 3l-5 2l-4 2h-5l-4 1l-6 1l-5 1h-10l-6 -1l-5 -1l-7 -1l-5 -2l-6 -2l-7 -3l-6 -2l-6 -3l-6 -3l-6 -4l-7 -4l-6 -5l-6 -4l-6 -6l-6 -5l-6 -6l-6 -6l-5 -6l-6 -7l-5 -7l-5 -7l-5 -7l-5 -8l-4 -9l-4 -8l-4 -7l-3 -9l-4 -8l-3 -8l-2 -8l-2 -8l-1 -8l-2 -8 l-1 -7l-1 -8v-22z" />
<glyph unicode="&#xbb;" horiz-adv-x="892" d="M20 200v80l342 537l-342 537v79l525 -616zM270 200v80l342 537l-342 537v79l525 -616z" />
<glyph unicode="&#xbf;" horiz-adv-x="1074" d="M9 408q0 15 1 31q9 182 124 365q114 180 294.5 297.5t363.5 130.5v104h80v-195q-19 5 -40 9q-63 9 -134 -9q-77 -21 -152 -71q-78 -52 -147 -130q-68 -77 -118 -174q-47 -93 -72 -193q-22 -98 -16 -186q4 -83 34 -150q28 -63 71 -99q18 -17 36 -26q48 -29 109 -32 q64 -4 139 22q76 25 151 81v-103q-160 -80 -310 -80q-26 0 -51 3q-174 15 -273 135q-90 109 -90 270zM740 1598h183v-184h-182z" />
<glyph unicode="&#xc0;" d="M20 0l616 1598l617 -1598h-199l-295 766h-378l-296 -766h-65zM202 1668v183l868 -183v-80zM406 832h327l-163 423z" />
<glyph unicode="&#xc1;" horiz-adv-x="1346" d="M20 0l616 1598l617 -1598h-199l-295 766h-378l-296 -766h-65zM202 1588v80l868 183v-183zM406 832h327l-163 423z" />
<glyph unicode="&#xc2;" d="M20 0l616 1598l617 -1598h-199l-295 766h-378l-296 -766h-65zM202 1588v80l434 183l434 -183v-80l-434 80zM406 832h327l-163 423z" />
<glyph unicode="&#xc3;" d="M20 0l616 1598l617 -1598h-199l-296 767h-377l-297 -767h-64zM202 1588v81l867 183v-183zM406 832h326l-163 424z" />
<glyph unicode="&#xc4;" d="M20 0l616 1598l617 -1598h-199l-295 767h-378l-296 -767h-65zM401.5 1674.5q6.5 37.5 37.5 69.5q30 30 68 36q9 2 17 2q26 0 43 -17q22 -22 15 -59.5t-37 -68.5q-31 -31 -68.5 -37.5t-59.5 16.5q-22 21 -15.5 58.5zM406 833h327l-163 423zM690.5 1674.5 q6.5 37.5 37.5 69.5q31 30 68 36q9 2 16 2q27 0 44 -17q21 -22 14.5 -59.5t-37.5 -68.5q-30 -31 -68 -37.5t-59 16.5q-22 21 -15.5 58.5z" />
<glyph unicode="&#xc5;" horiz-adv-x="1331" d="M20 0l616 1598l617 -1598h-199l-295 767h-378l-296 -767h-65zM406 832h327l-163 424zM520 1714q0 46 33.5 79.5t80.5 33.5t80.5 -33.5t33.5 -79.5q0 -48 -33.5 -81t-80.5 -33t-80.5 33t-33.5 81zM564 1714q0 -29 20.5 -49.5t49.5 -20.5q28 0 49 20.5t21 49.5 q0 28 -21 48.5t-49 20.5q-29 0 -49.5 -20.5t-20.5 -48.5z" />
<glyph unicode="&#xc6;" horiz-adv-x="1844" d="M20 0l616 1599h739v-66h-539v-700h387v-66h-387v-701h539v-66h-739v767h-255l-296 -767h-65zM406 833h230v250l-66 173z" />
<glyph unicode="&#xc7;" horiz-adv-x="1354" d="M-25 528q0 62 11 131q46 280 259 529t498 355q157 57 296 57q114 0 216 -38v-144q-32 37 -79 67q-69 41 -156 48q-94 6 -193 -26q-105 -34 -208 -109q-107 -79 -193 -184q-89 -110 -149 -237q-60 -126 -86 -259q-25 -130 -13 -246q10 -112 55 -200q40 -83 107 -133 q21 -17 38 -25q85 -50 194 -47q116 2 240 65q113 54 216 152v-113q-234 -154 -474 -168v-18q45 -4 73 -33q44 -44 31 -119t-75 -139q-62 -60 -136 -74q-18 -3 -35 -3q-51 0 -85 32l54 54l2 -2l2 -1l1 -1l3 -1l3 -1l2 -1l3 -1l4 -1h3l4 -1h14l5 1h5l6 2l5 1l6 1l6 3l6 2l7 2 l6 3l6 4l6 3l7 4l6 4l6 4l6 6l7 4l5 6l6 5l6 7l5 6l6 5l4 6l4 7l5 6l4 6l3 6l3 7l3 6l2 6l3 6l2 7l2 5l1 6l1 5l1 5l1 6v13l-1 4l-1 4v3l-2 3v3l-1 3l-2 2v2l-2 2l-2 1l-1 2l-2 2l-1 1l-3 2h-1l-2 2l-3 1l-3 1h-3l-1 1h-45v93q-132 0 -242.5 48t-184.5 144 q-107 140 -107 335z" />
<glyph unicode="&#xc8;" horiz-adv-x="1348" d="M20 0v1588h1047l-865 80v183l868 -183v-80h183v-66h-1034v-690h600v-66h-600v-701h1034v-65h-1233z" />
<glyph unicode="&#xc9;" horiz-adv-x="1379" d="M20 0v1585h1233v-66h-1034v-686h600v-66h-600v-701h1034v-66h-1233zM202 1588v81l867 183v-183z" />
<glyph unicode="&#xca;" d="M20 0v1589h151l31 80l434 183l434 -183l31 -80h152v-66h-1034v-691h600v-66h-600v-701h1034v-65h-1233zM202 1589h868l-434 80z" />
<glyph unicode="&#xcb;" horiz-adv-x="1360" d="M20 0v1598h440q-27 1 -43 18q-22 21 -15.5 58.5t37.5 69.5q30 30 68 36q9 2 17 2q26 0 43 -17q22 -22 15 -59.5t-37 -68.5q-38 -38 -82 -39h285q-26 1 -42 18q-22 21 -15.5 58.5t37.5 69.5q31 30 68 36q9 2 16 2q27 0 44 -17q21 -22 14.5 -59.5t-37.5 -68.5 q-36 -38 -81 -39h501v-65h-1034v-700h600v-66h-600v-701h1034v-66h-1233z" />
<glyph unicode="&#xcc;" horiz-adv-x="977" d="M20 1668v183l867 -183v-80zM354 0v1598h199v-1598h-199z" />
<glyph unicode="&#xcd;" horiz-adv-x="958" d="M20 1588v80l867 183v-183zM354 0v1598h199v-1598h-199z" />
<glyph unicode="&#xce;" horiz-adv-x="965" d="M20 1588v80l434 183l433 -183v-80l-433 80zM354 0v1598h199v-1598h-199z" />
<glyph unicode="&#xcf;" horiz-adv-x="554" d="M13 1659q0 7 1 16q6 37 38 69q30 30 68 36q8 2 16 2q26 0 44 -17q21 -22 14.5 -59.5t-36.5 -68.5q-31 -31 -68.5 -37.5t-59.5 16.5q-17 16 -17 43zM150 0v1598h199v-1598h-199zM303.5 1674.5q6.5 37.5 37.5 69.5q30 30 68 36q8 2 16 2q27 0 44 -17q16 -17 16 -43 q0 -8 -1 -17q-6 -37 -37 -68t-69 -37.5t-59 16.5q-22 21 -15.5 58.5z" />
<glyph unicode="&#xd1;" horiz-adv-x="1370" d="M20 0v1599l1034 -1176v1176h199v-1599l-1168 1328v-1328h-65zM281 1415v118h673v-118h-673z" />
<glyph unicode="&#xd2;" horiz-adv-x="1661" d="M-36 523q0 66 12 140q55 326 326 597q270 270 596 326t518 -135q147 -148 147 -377q0 -67 -12 -141q-56 -326 -326 -596q-272 -270 -598 -325q-74 -12 -141 -12q-228 0 -376 146q-146 148 -146 377zM166 470q11 -112 56 -200q40 -82 107 -133q20 -16 37 -25 q85 -49 195 -47q116 2 240 65q130 63 244 182q115 116 196 271q78 150 108 310q27 155 2 290q-20 106 -69 184q-49 74 -117 116q-70 41 -157 48q-93 6 -192 -26q-105 -34 -208 -108t-193 -185q-89 -108 -150 -237q-60 -127 -85 -259q-25 -128 -14 -246zM620 1668v183 l867 -183v-80z" />
<glyph unicode="&#xd3;" horiz-adv-x="1666" d="M-36 523q0 66 12 140q55 326 326 597q270 270 596 326t518 -135q147 -148 147 -377q0 -67 -12 -141q-56 -326 -326 -596q-272 -270 -598 -325q-74 -12 -141 -12q-228 0 -376 146q-146 148 -146 377zM166 470q11 -112 56 -200q40 -82 107 -133q20 -16 37 -25 q85 -49 195 -47q116 2 240 65q130 63 244 182q115 116 196 271q78 150 108 310q27 155 2 290q-20 106 -69 184q-49 74 -117 116q-70 41 -157 48q-93 6 -192 -26q-105 -34 -208 -108t-193 -185q-89 -108 -150 -237q-60 -127 -85 -259q-25 -128 -14 -246zM695 1588v80l868 183 v-183z" />
<glyph unicode="&#xd4;" horiz-adv-x="1669" d="M-36 523q0 66 12 140q55 326 326 597q270 270 596 326t518 -135q147 -148 147 -377q0 -67 -12 -141q-56 -326 -326 -596q-272 -270 -598 -325q-74 -12 -141 -12q-228 0 -376 146q-146 148 -146 377zM166 470q11 -112 56 -200q40 -82 107 -133q20 -16 37 -25 q85 -49 195 -47q116 2 240 65q130 63 244 182q115 116 196 271q78 150 108 310q27 155 2 290q-20 106 -69 184q-49 74 -117 116q-70 41 -157 48q-93 6 -192 -26q-105 -34 -208 -108t-193 -185q-89 -108 -150 -237q-60 -127 -85 -259q-25 -128 -14 -246zM620 1588v80l433 183 l434 -183v-80l-434 80z" />
<glyph unicode="&#xd5;" horiz-adv-x="1639" d="M-36 523q0 67 12 141q55 326 326 596q270 270 596 326.5t518 -135.5q147 -148 147 -376q0 -67 -12 -142q-56 -326 -326 -595q-272 -270 -598 -326q-74 -12 -141 -12q-228 0 -376 146q-146 149 -146 377zM166 470q11 -112 56 -200q40 -82 107 -133q20 -15 37 -25 q1 -1 2 -1q82 -48 193 -46q116 3 240 65q130 63 244 182q115 116 196 271q78 150 108 311q27 154 2 289q-20 106 -69 184q-49 74 -117 116q-70 42 -157 49q-93 5 -192 -27q-105 -33 -208 -108q-103 -74 -193 -184q-89 -109 -150 -237q-60 -128 -85 -259q-25 -129 -14 -247z M620 1606v80h867v-80h-867z" />
<glyph unicode="&#xd6;" horiz-adv-x="1666" d="M-36 524q0 66 12 140q55 326 326 597q270 269 596 325.5t518 -134.5q147 -148 147 -377q0 -67 -12 -141q-56 -326 -326 -596q-272 -270 -598 -325q-74 -13 -141 -13q-228 0 -376 147q-146 148 -146 377zM166 470q11 -112 56 -199q40 -83 107 -134q20 -15 37 -25 q85 -49 195 -46q116 2 240 64q130 64 244 182q115 116 196 272q78 149 108 310q27 154 2 289q-20 106 -69 184q-49 75 -117 117q-70 41 -157 48q-93 6 -192 -26q-105 -34 -208 -109q-103 -73 -193 -184q-89 -108 -150 -237q-60 -127 -85 -259q-25 -129 -14 -247zM818 1674 q7 37 38 69q30 30 68 37q8 1 16 1q27 0 43 -17q22 -21 15.5 -58.5t-37.5 -68.5t-68.5 -37.5t-58.5 15.5q-23 22 -16 59zM1107 1674q6 37 38 69q30 30 68 37q9 1 17 1q26 0 42 -17q22 -21 15.5 -58.5t-36.5 -68.5q-32 -31 -69 -37.5t-59 15.5t-16 59z" />
<glyph unicode="&#xd9;" horiz-adv-x="1332" d="M20 414v1184h182v-1178q0 -9 0.5 -17t1.5 -16q4 -84 34 -150q25 -60 71 -99q15 -15 36 -26q47 -29 109 -32q67 -4 139 21q79 28 154 83q76 58 143 141q66 84 109 179t61 194q10 57 10 114v786h183v-1598h-183v347q-134 -168 -317 -262q-168 -85 -324 -85h-32 q-173 11 -275 124t-102 290zM20 1668v183l866 -183v-80z" />
<glyph unicode="&#xda;" horiz-adv-x="1353" d="M20 414v1184h182v-1178q0 -9 0.5 -17t1.5 -16q4 -84 34 -150q25 -60 71 -99q15 -15 36 -26q47 -29 109 -32q67 -4 139 21q79 28 154 83q76 58 143 141q66 84 109 179t61 194q10 57 10 114v786h183v-1598h-183v347q-134 -168 -317 -262q-168 -85 -324 -85h-32 q-173 11 -275 124t-102 290zM386 1588v80l867 183v-183z" />
<glyph unicode="&#xdb;" horiz-adv-x="1351" d="M20 414v1164h182v-1158q0 -8 0.5 -16.5t1.5 -16.5q4 -84 34 -150q25 -60 71 -99q15 -15 36 -26q47 -29 109 -32q67 -4 139 21q79 28 154 84q76 57 143 140q66 84 109 179t61 195q10 56 10 113v766h183v-1578h-183v348q-134 -169 -317 -263q-168 -85 -324 -85h-32 q-173 11 -275 124t-102 290zM202 1586v80l434 183l434 -183v-80l-434 80z" />
<glyph unicode="&#xdc;" horiz-adv-x="1377" d="M20 414v1184h182v-1177q0 -9 0.5 -17t1.5 -16q4 -84 34 -151q25 -60 71 -99q15 -15 36 -25q47 -29 109 -32q67 -4 139 21q79 28 154 83q76 58 143 141q66 84 109 179q43 94 61 194q10 57 10 114v785h183v-1598h-183v348q-134 -168 -317 -262q-168 -86 -324 -86 q-16 0 -32 1q-173 11 -275 123.5t-102 289.5zM401.5 1674.5q6.5 37.5 37.5 69.5q30 30 68 36q9 2 17 2q26 0 43 -17q22 -22 15 -59.5t-37 -68.5q-31 -31 -68.5 -37t-59.5 16q-22 21 -15.5 58.5zM690.5 1674.5q6.5 37.5 37.5 69.5q31 30 68 36q9 2 16 2q27 0 44 -17 q21 -22 14.5 -59.5t-37.5 -68.5q-30 -31 -68 -37t-59 16q-22 21 -15.5 58.5z" />
<glyph unicode="&#xdf;" horiz-adv-x="771" d="M45 0v778q0 149 30 224.5t95.5 117.5t148.5 42q104 0 170 -64t66 -158q0 -39 -10.5 -81t-40.5 -106q-45 -97 -45 -131q0 -28 17 -56q12 -21 74 -70q97 -78 127 -130t30 -123q0 -114 -68 -188.5t-165 -74.5q-76 0 -138 49t-95 139l99 56q57 -129 130 -129q47 0 83 39.5 t36 96.5q0 39 -15 65.5t-77 77.5q-100 84 -128.5 129t-28.5 96q0 31 8.5 61t39.5 94q55 118 55 171q0 51 -36 86.5t-91 35.5q-76 0 -116 -56.5t-40 -218.5v-772h-115z" />
<glyph unicode="&#xe0;" horiz-adv-x="1333" d="M-27 413q0 114 50 243q87 220 282.5 381.5t412.5 191.5q215 28 353 -88q136 -116 136 -319v-822h-183v348q-158 -199 -378 -291q-137 -57 -260 -57q-74 0 -142 21q-184 56 -245 235q-26 74 -26 157zM156 1416v183l868 -183v-80zM158 389q4 -83 33 -151q29 -64 72 -100 q17 -16 36 -25q45 -28 109 -32t139 22q76 25 154 82q78 60 143 141q66 84 109 179q44 98 61 194q16 98 6 181q-11 81 -43 141q-31 55 -77 89q-46 32 -103 41q-60 9 -134 -9q-77 -22 -152 -71q-79 -52 -147 -130q-67 -76 -118 -173q-48 -96 -72 -194q-22 -99 -16 -185z" />
<glyph unicode="&#xe1;" horiz-adv-x="1328" d="M-27 413q0 114 50 243q87 220 282.5 381.5t412.5 191.5q215 28 353 -88q136 -116 136 -319v-822h-183v348q-158 -199 -378 -291q-137 -57 -260 -57q-74 0 -142 21q-184 56 -245 235q-26 74 -26 157zM158 389q4 -83 33 -151q29 -64 72 -100q17 -16 36 -25q45 -28 109 -32 t139 22q76 25 154 82q78 60 143 141q66 84 109 179q44 98 61 194q16 98 6 181q-11 81 -43 141q-31 55 -77 89q-46 32 -103 41q-60 9 -134 -9q-77 -22 -152 -71q-79 -52 -147 -130q-67 -76 -118 -173q-48 -96 -72 -194q-22 -99 -16 -185zM340 1336v80l867 183v-183z" />
<glyph unicode="&#xe2;" horiz-adv-x="1323" d="M-27 413q0 114 50 243q87 220 282.5 381.5t412.5 191.5q215 28 353 -88q136 -116 136 -319v-822h-183v348q-158 -199 -378 -291q-137 -57 -260 -57q-74 0 -142 21q-184 56 -245 235q-26 74 -26 157zM158 389q4 -83 33 -151q29 -64 72 -100q17 -16 36 -25q45 -28 109 -32 t139 22q76 25 154 82q78 60 143 141q66 84 109 179q44 98 61 194q16 98 6 181q-11 81 -43 141q-31 55 -77 89q-46 32 -103 41q-60 9 -134 -9q-77 -22 -152 -71q-79 -52 -147 -130q-67 -76 -118 -173q-48 -96 -72 -194q-22 -99 -16 -185zM340 1336v80l433 183l434 -183v-80 l-434 80z" />
<glyph unicode="&#xe3;" horiz-adv-x="1338" d="M-27 413q0 114 50 243q87 220 282.5 381.5t412.5 191.5q215 28 353 -88q136 -116 136 -319v-822h-183v348q-158 -199 -378 -291q-137 -57 -260 -57q-74 0 -142 21q-184 56 -245 235q-26 74 -26 157zM158 389q4 -83 33 -151q29 -64 72 -100q17 -16 36 -25q45 -28 109 -32 t139 22q76 25 154 82q78 60 143 141q66 84 109 179q44 98 61 194q16 98 6 181q-11 81 -43 141q-31 55 -77 89q-46 32 -103 41q-60 9 -134 -9q-77 -22 -152 -71q-79 -52 -147 -130q-67 -76 -118 -173q-48 -96 -72 -194q-22 -99 -16 -185zM340 1519v80h867v-80h-867z" />
<glyph unicode="&#xe4;" horiz-adv-x="1318" d="M-27 413q0 114 50 243q87 220 282.5 381.5t412.5 191.5q215 28 353 -88q136 -116 136 -319v-822h-183v348q-158 -199 -378 -291q-137 -57 -260 -57q-74 0 -142 21q-184 56 -245 235q-26 74 -26 157zM158 389q4 -83 33 -151q29 -64 72 -100q17 -16 36 -25q45 -28 109 -32 t139 22q76 25 154 82q78 60 143 141q66 84 109 179q44 98 61 194q16 98 6 181q-11 81 -43 141q-31 55 -77 89q-46 32 -103 41q-60 9 -134 -9q-77 -22 -152 -71q-79 -52 -147 -130q-67 -76 -118 -173q-48 -96 -72 -194q-22 -99 -16 -185zM538.5 1491.5q6.5 37.5 37.5 68.5 q30 31 68 37q8 2 16 2q27 0 44 -17q21 -22 14.5 -59.5t-36.5 -68.5q-31 -31 -69 -37t-59 15q-22 22 -15.5 59.5zM827.5 1491.5q6.5 37.5 37.5 68.5t68 37q9 2 17 2q25 0 42 -17q22 -22 15.5 -59.5t-36.5 -68.5q-32 -31 -69 -37t-59 15q-22 22 -15.5 59.5z" />
<glyph unicode="&#xe5;" horiz-adv-x="1292" d="M-27 413q0 114 50 243q87 220 282.5 381.5t412.5 191.5q215 28 353 -88q136 -116 136 -319v-822h-183v348q-158 -199 -378 -291q-137 -57 -260 -57q-74 0 -142 21q-184 56 -245 235q-26 74 -26 157zM158 389q4 -83 33 -151q29 -64 72 -100q17 -16 36 -25q45 -28 109 -32 t139 22q76 25 154 82q78 60 143 141q66 84 109 179q44 98 61 194q16 98 6 181q-11 81 -43 141q-31 55 -77 89q-46 32 -103 41q-60 9 -134 -9q-77 -22 -152 -71q-79 -52 -147 -130q-67 -76 -118 -173q-48 -96 -72 -194q-22 -99 -16 -185zM745 1414q0 46 33.5 79.5t80.5 33.5 t80.5 -33.5t33.5 -79.5q0 -48 -33.5 -81t-80.5 -33t-80.5 33t-33.5 81zM789 1414q0 -29 20.5 -49.5t49.5 -20.5q28 0 49 20.5t21 49.5q0 28 -21 48.5t-49 20.5q-29 0 -49.5 -20.5t-20.5 -48.5z" />
<glyph unicode="&#xe6;" horiz-adv-x="2421" d="M-24 398q0 52 9 109q43 252 251 461q208 208 461 252q57 9 109 9q177 0 291 -114q113 -113 113 -297q53 80 123 150q208 208 461 252q57 9 108 9q177 0 291 -114q113 -113 113 -298l-1025 -383v-20l1 -24l2 -22l2 -23l4 -21l4 -20l5 -20l6 -18l7 -18l7 -17l8 -15l9 -14 l9 -14l10 -12l10 -11l10 -11l11 -9l12 -9l13 -8l12 -7l14 -5l14 -5l14 -5l15 -3l15 -2l17 -1h16l17 1l18 2l19 3l19 4l20 5l19 6l20 8l21 9l21 10l20 11l21 13l21 14l21 15l21 15l20 18l20 18l20 20l20 20l2 3v-168q-180 -117 -367 -130q-22 -1 -42 -1q-159 0 -269 89v-85 h-156v379q-48 -69 -105 -124q-208 -209 -460 -252q-58 -8 -109 -8q-177 0 -291 112q-113 114 -113 291zM185 414l1 -24l1 -22l3 -23l3 -21l5 -20l5 -20l6 -18l6 -18l8 -17l8 -15l8 -14l10 -14l9 -12l10 -11l11 -11l11 -9l12 -9l12 -8l13 -7l14 -5l14 -5l14 -5l15 -3l15 -2 l16 -1h17l17 1l18 2l19 3l19 4l19 5l20 6l20 8l21 9l20 10l21 11l21 13l21 14l21 15l21 15l20 18l20 18l20 20l19 20l19 22l19 23l18 23l18 25l16 25l16 27l15 27l13 27l14 27l11 28l10 27l9 27l9 27l7 28l5 26l5 27l4 26l2 25l1 25l1 24l-1 24l-2 22l-2 23l-3 21l-5 21 l-5 20l-6 18l-7 18l-7 16l-8 16l-8 14l-10 13l-9 12l-10 11l-11 11l-11 10l-12 8l-13 8l-12 7l-14 5l-14 6l-14 4l-15 3l-15 1l-16 2h-17l-17 -1l-18 -1l-19 -3l-18 -4l-20 -6l-20 -6l-20 -8l-21 -8l-20 -11l-21 -11l-21 -13l-21 -13l-20 -16l-22 -15l-20 -17l-20 -19 l-20 -20l-20 -20l-19 -22l-18 -22l-18 -24l-17 -25l-17 -25l-16 -26l-15 -27l-14 -28l-13 -27l-11 -27l-10 -28l-10 -27l-8 -27l-7 -28l-5 -26l-5 -26l-4 -26l-2 -25l-1 -25zM1295 546l801 300l-1 8l-2 23l-4 21l-4 21l-6 20l-6 18l-6 18l-8 16l-8 16l-8 14l-9 13l-10 12 l-10 11l-10 11l-12 10l-12 8l-12 8l-13 7l-14 5l-13 6l-15 4l-15 3l-14 1l-17 2h-16l-18 -1l-18 -1l-18 -3l-20 -4l-19 -6l-20 -6l-20 -8l-20 -8l-21 -11l-21 -11l-20 -13l-22 -13l-21 -16l-20 -15l-21 -17l-19 -19l-21 -20l-19 -20l-19 -22l-19 -22l-18 -24l-17 -25 l-17 -25l-16 -26l-15 -27l-13 -28l-14 -27l-11 -27l-10 -28l-9 -27l-9 -27l-6 -28z" />
<glyph unicode="&#xe7;" horiz-adv-x="1076" d="M-15 390q0 49 9 102q35 217 201 409q166 193 387 274q119 44 226 44q89 0 169 -32v-163q-29 43 -65 69q-45 32 -103 41q-64 9 -134 -9q-77 -21 -152 -71q-79 -51 -147 -129t-118 -174q-48 -93 -72 -194q-22 -98 -16 -185q4 -83 33 -151q28 -63 72 -99q16 -16 36 -26 q47 -29 109 -32q66 -4 139 21q80 28 154 84q45 33 88 79v-131q-177 -117 -358 -131v-19q44 -3 72 -33q44 -43 31 -118.5t-74 -138.5q-63 -61 -138 -74q-18 -3 -34 -3q-51 0 -84 32l54 54l1 -2l3 -1l1 -1l2 -2l3 -1h3l3 -1l3 -1l4 -1h23l5 1l6 2h5l5 2l7 2l6 3l6 2l6 3l7 3 l6 3l6 4l6 5l7 4l5 5l6 5l7 5l6 6l5 6l6 6l4 6l5 6l5 6l4 7l4 6l3 6l4 6l3 7l2 6l2 6l3 6l1 6l1 5l2 6v5l1 6v13l-1 4v4l-1 3l-1 3l-1 3v2l-2 3l-1 1l-1 3l-2 1l-1 2l-2 1l-2 2l-2 1l-2 1l-2 2h-2l-3 1l-3 1l-1 1h-45v93q-217 0 -330 147q-83 109 -83 259z" />
<glyph unicode="&#xe8;" horiz-adv-x="1358" d="M19 410v3q0 188 117 381q118 193 310 315t384 126q191 4 308 -113q114 -114 114 -299v-7l-1051 -393q0 -12 2 -34q4 -83 34 -150q28 -64 71 -99q17 -17 36 -26q47 -29 109 -32q64 -4 139 22q76 25 154 82q45 34 88 79v-131q-191 -124 -383 -131q-12 -1 -24 -1 q-176 0 -288 106q-119 112 -120 302zM201 1417v183l868 -183v-80zM208 510l861 323q-2 19 -4 48q-11 81 -43 141q-30 55 -76 89q-47 32 -104 41q-63 9 -134 -9q-77 -21 -152 -71q-78 -52 -147 -130q-67 -76 -118 -173q-48 -94 -72 -194q-7 -35 -11 -65z" />
<glyph unicode="&#xe9;" horiz-adv-x="1373" d="M19 408v3q0 188 117 381q118 193 310 315t384 126q191 4 308 -113q114 -114 114 -299v-7l-1051 -393q0 -12 2 -34q4 -83 34 -150q28 -64 71 -99q17 -17 36 -26q47 -29 109 -32q64 -4 139 22q76 25 154 82q45 34 88 79v-131q-191 -124 -383 -131q-12 -1 -24 -1 q-176 0 -288 106q-119 112 -120 302zM208 508l861 323q-2 19 -4 48q-11 81 -43 141q-30 55 -76 89q-47 32 -104 41q-63 9 -134 -9q-77 -21 -152 -71q-78 -52 -147 -130q-67 -76 -118 -173q-48 -94 -72 -194q-7 -35 -11 -65zM385 1335v80l867 183v-183z" />
<glyph unicode="&#xea;" horiz-adv-x="1358" d="M19 410v3q0 188 117 381q118 193 310 315t384 126q191 4 308 -113q114 -114 114 -299v-7l-1051 -393q0 -12 2 -34q4 -83 34 -150q28 -64 71 -99q17 -17 36 -26q47 -29 109 -32q64 -4 139 22q76 25 154 82q45 34 88 79v-131q-191 -124 -383 -131q-12 -1 -24 -1 q-176 0 -288 106q-119 112 -120 302zM208 510l861 323q-2 19 -4 48q-11 81 -43 141q-30 55 -76 89q-47 32 -104 41q-63 9 -134 -9q-77 -21 -152 -71q-78 -52 -147 -130q-67 -76 -118 -173q-48 -94 -72 -194q-7 -35 -11 -65zM385 1337v80l433 183l434 -183v-80l-434 80z" />
<glyph unicode="&#xeb;" horiz-adv-x="1345" d="M19 410v3q0 188 117 381q118 193 310 315t384 126q191 4 308 -113q114 -114 114 -299v-7l-1051 -393q0 -12 2 -34q4 -83 34 -150q28 -64 71 -99q17 -17 36 -26q47 -29 109 -32q64 -4 139 22q76 25 154 82q45 34 88 79v-131q-191 -124 -383 -131q-12 -1 -24 -1 q-176 0 -288 106q-119 112 -120 302zM208 510l861 323q-2 19 -4 48q-11 81 -43 141q-30 55 -76 89q-47 32 -104 41q-63 9 -134 -9q-77 -21 -152 -71q-78 -52 -147 -130q-67 -76 -118 -173q-48 -94 -72 -194q-7 -35 -11 -65zM583.5 1492.5q6.5 37.5 37.5 69.5q30 30 68 36 q9 2 16 2q27 0 44 -17q21 -21 15 -59t-37 -69t-69 -37t-59 16q-22 21 -15.5 58.5zM872.5 1492.5q6.5 37.5 37.5 69.5q31 30 68 36q9 2 17 2q25 0 43 -17q21 -21 14.5 -59t-36.5 -69q-31 -31 -68.5 -37t-59.5 16q-22 21 -15.5 58.5z" />
<glyph unicode="&#xec;" horiz-adv-x="968" d="M20 1415v184l867 -184v-79zM362 0v1234h183v-1234h-183z" />
<glyph unicode="&#xed;" horiz-adv-x="962" d="M20 1336v79l867 184v-184zM362 0v1234h183v-1234h-183z" />
<glyph unicode="&#xee;" horiz-adv-x="973" d="M20 1364v80l434 183l433 -183v-80l-433 80zM362 0v1233h183v-1233h-183z" />
<glyph unicode="&#xef;" horiz-adv-x="577" d="M13 1475q0 8 1 17q6 37 38 68q30 31 68 37q8 2 16 2q26 0 44 -17q21 -22 14.5 -59.5t-36.5 -68.5q-31 -31 -68.5 -37.5t-59.5 15.5q-17 17 -17 43zM158 0v1234h183v-1234h-183zM303.5 1491.5q6.5 37.5 37.5 68.5q30 31 68 37q8 2 16 2q27 0 44 -17q16 -17 16 -43 q0 -8 -1 -17q-6 -37 -37 -68t-69 -37.5t-59 15.5q-22 22 -15.5 59.5z" />
<glyph unicode="&#xf1;" horiz-adv-x="1359" d="M20 0v1234h182v-348q134 169 318.5 263.5t357.5 83.5q172 -12 275 -126q100 -112 100 -284v-823h-183v815q0 30 -4 64q-10 79 -43 142q-30 55 -76 89q-47 32 -104 41q-63 8 -134 -9q-77 -22 -152 -71q-78 -52 -147 -130q-67 -76 -118 -173q-48 -94 -72 -194 q-18 -81 -18 -152v-422h-182zM202 1519v80h868v-80h-868z" />
<glyph unicode="&#xf2;" horiz-adv-x="1309" d="M-24 404q0 51 10 109q43 252 251 460q209 208 461 251.5t399 -104.5q114 -113 114 -290q0 -52 -9 -109q-44 -252 -252 -460q-209 -208 -461 -251q-57 -10 -109 -10q-177 0 -291 113q-113 114 -113 291zM159 1416v183l868 -183v-80zM161 388q4 -83 34 -150q28 -63 71 -100 q18 -16 36 -25q48 -29 109 -32q67 -4 139 21q81 29 153 83q79 60 143 141q66 82 110 179q44 98 61 194q15 94 6 180q-10 79 -43 142q-32 56 -76 89q-46 32 -104 41q-63 8 -134 -9q-78 -22 -152 -71q-78 -52 -147 -130q-70 -80 -118 -174q-50 -97 -72 -193q-22 -99 -16 -186z " />
<glyph unicode="&#xf3;" horiz-adv-x="1315" d="M-24 404q0 51 10 109q43 252 251 460q209 208 461 251.5t399 -104.5q114 -113 114 -290q0 -52 -9 -109q-44 -252 -252 -460q-209 -208 -461 -251q-57 -10 -109 -10q-177 0 -291 113q-113 114 -113 291zM161 388q4 -83 34 -150q28 -63 71 -100q18 -16 36 -25 q48 -29 109 -32q67 -4 139 21q81 29 153 83q79 60 143 141q66 82 110 179q44 98 61 194q15 94 6 180q-10 79 -43 142q-32 56 -76 89q-46 32 -104 41q-63 8 -134 -9q-78 -22 -152 -71q-78 -52 -147 -130q-70 -80 -118 -174q-50 -97 -72 -193q-22 -99 -16 -186zM343 1336v80 l867 183v-183z" />
<glyph unicode="&#xf4;" horiz-adv-x="1315" d="M-24 404q0 51 10 109q43 252 251 460q209 208 461 251.5t399 -104.5q114 -113 114 -290q0 -52 -9 -109q-44 -252 -252 -460q-209 -208 -461 -251q-57 -10 -109 -10q-177 0 -291 113q-113 114 -113 291zM161 388q4 -83 34 -150q28 -63 71 -100q18 -16 36 -25 q48 -29 109 -32q67 -4 139 21q81 29 153 83q79 60 143 141q66 82 110 179q44 98 61 194q15 94 6 180q-10 79 -43 142q-32 56 -76 89q-46 32 -104 41q-63 8 -134 -9q-78 -22 -152 -71q-78 -52 -147 -130q-70 -80 -118 -174q-50 -97 -72 -193q-22 -99 -16 -186zM343 1336v80 l433 183l434 -183v-80l-434 80z" />
<glyph unicode="&#xf5;" horiz-adv-x="1287" d="M-24 403q0 52 10 110q43 251 251 460q209 208 461 251.5t399 -104.5q114 -114 114 -290q0 -52 -9 -109q-44 -252 -252 -460q-209 -209 -461 -252q-57 -9 -109 -9q-177 0 -291 113q-113 114 -113 290zM161 388q4 -83 34 -151q28 -62 71 -99q18 -16 36 -26q48 -28 109 -32 q67 -3 139 21q81 29 153 84q79 59 143 140q66 83 110 180q44 98 61 194q15 94 6 180q-10 79 -43 141q-32 56 -76 89q-46 32 -104 42q-63 8 -134 -10q-78 -22 -152 -71q-78 -51 -147 -129q-70 -81 -118 -174q-50 -98 -72 -194q-22 -98 -16 -185zM343 1516v80h867v-80h-867z " />
<glyph unicode="&#xf6;" horiz-adv-x="1309" d="M-24 404q0 51 10 109q43 252 251 460q209 208 461 251.5t399 -104.5q114 -113 114 -290q0 -52 -9 -109q-44 -252 -252 -460q-209 -208 -461 -251q-57 -10 -109 -10q-177 0 -291 113q-113 114 -113 291zM161 388q4 -83 34 -150q28 -63 71 -100q18 -16 36 -25 q48 -29 109 -32q67 -4 139 21q81 29 153 83q79 60 143 141q66 82 110 179q44 98 61 194q15 94 6 180q-10 79 -43 142q-32 56 -76 89q-46 32 -104 41q-63 8 -134 -9q-78 -22 -152 -71q-78 -52 -147 -130q-70 -80 -118 -174q-50 -97 -72 -193q-22 -99 -16 -186zM541.5 1491.5 q6.5 37.5 37.5 68.5q30 31 68 37q9 2 16 2q26 0 43 -17q22 -22 15.5 -59.5t-37.5 -68.5q-30 -31 -68 -37t-59 15q-22 22 -15.5 59.5zM830 1491.5q6 37.5 38 68.5q30 31 68 37q9 2 17 2q25 0 43 -17q21 -22 14.5 -59.5t-36.5 -68.5q-31 -31 -68.5 -37t-59.5 15 q-22 22 -16 59.5z" />
<glyph unicode="&#xf7;" horiz-adv-x="1267" d="M20 678v199h925v-199h-925zM281.5 270q14.5 83 82.5 151q69 69 152 83.5t132 -33.5q49 -50 34.5 -133t-82.5 -151q-70 -70 -152 -84q-19 -3 -36 -3q-59 0 -96 38q-49 49 -34.5 132zM281.5 1217q14.5 83 82.5 151q69 69 152 84q19 3 36 3q58 0 96 -38q49 -49 34.5 -132 t-82.5 -151q-70 -70 -153 -84t-131 35q-49 49 -34.5 132z" />
<glyph unicode="&#xf9;" horiz-adv-x="1344" d="M18 409v825h182v-812q0 -12 2 -34q4 -83 34 -150q28 -64 71 -100q17 -16 36 -25q47 -29 109 -32q64 -4 139 22q76 25 154 82q78 60 143 141q66 84 109 179q44 98 61 194q10 57 10 116v419h183v-1234h-183v348q-134 -168 -317 -262q-168 -86 -324 -86q-16 0 -32 1 q-173 11 -276 124q-101 111 -101 284zM200 1416v183l868 -183v-80z" />
<glyph unicode="&#xfa;" horiz-adv-x="1351" d="M18 409v825h182v-812q0 -12 2 -34q4 -83 34 -150q28 -64 71 -100q17 -16 36 -25q47 -29 109 -32q64 -4 139 22q76 25 154 82q78 60 143 141q66 84 109 179q44 98 61 194q10 57 10 116v419h183v-1234h-183v348q-134 -168 -317 -262q-168 -86 -324 -86q-16 0 -32 1 q-173 11 -276 124q-101 111 -101 284zM384 1336v80l867 183v-183z" />
<glyph unicode="&#xfb;" horiz-adv-x="1357" d="M18 409v825h182v-812q0 -12 2 -34q4 -83 34 -150q28 -64 71 -100q17 -16 36 -25q47 -29 109 -32q64 -4 139 22q76 25 154 82q78 60 143 141q66 84 109 179q44 98 61 194q10 57 10 116v419h183v-1234h-183v348q-134 -168 -317 -262q-168 -86 -324 -86q-16 0 -32 1 q-173 11 -276 124q-101 111 -101 284zM200 1336v80l434 183l434 -183v-80l-434 80z" />
<glyph unicode="&#xfc;" horiz-adv-x="1358" d="M18 409v825h182v-812q0 -12 2 -34q4 -83 34 -150q28 -64 71 -100q17 -16 36 -25q47 -29 109 -32q64 -4 139 22q76 25 154 82q78 60 143 141q66 84 109 179q44 98 61 194q10 57 10 116v419h183v-1234h-183v348q-134 -168 -317 -262q-168 -86 -324 -86q-16 0 -32 1 q-173 11 -276 124q-101 111 -101 284zM399.5 1491.5q6.5 37.5 37.5 68.5q30 31 68 37q8 2 16 2q27 0 44 -17q21 -22 14.5 -59.5t-36.5 -68.5q-31 -31 -68.5 -37t-59.5 15q-22 22 -15.5 59.5zM688.5 1491.5q6.5 37.5 37.5 68.5t68 37q9 2 16 2q26 0 43 -17q22 -22 15.5 -59.5 t-37.5 -68.5t-68.5 -37t-58.5 15q-22 22 -15.5 59.5z" />
<glyph unicode="&#xff;" horiz-adv-x="1364" d="M18 480v824h182v-813q0 -11 2 -32q4 -83 34 -151q27 -62 71 -99q17 -16 36 -26q47 -29 109 -32q67 -4 139 21q77 26 154 84q75 56 143 139q65 83 109 181t61 194q10 57 10 115v419h183v-1704h-183v818q-134 -168 -317.5 -262t-355.5 -84q-173 11 -276 124 q-101 111 -101 284zM399.5 1562.5q6.5 37.5 37.5 68.5q30 30 68 37q8 1 16 1q27 0 44 -16q21 -22 14.5 -60t-36.5 -68q-31 -31 -68.5 -37.5t-59.5 15.5t-15.5 59.5zM688.5 1562.5q6.5 37.5 37.5 68.5q31 30 68 37q9 1 16 1q26 0 43 -16q22 -22 15.5 -60t-37.5 -68 q-31 -31 -68.5 -37.5t-58.5 15.5q-22 22 -15.5 59.5z" />
<glyph unicode="&#x152;" horiz-adv-x="1709" d="M-36 522q0 67 13 142q56 327 325 597q159 159 345.5 244.5t360.5 92.5h9q7 1 14 1t15 -1h579v-66h-418v-700h265v-66h-265v-701h418v-65h-617v162q-244 -154 -493 -162h-25q-233 0 -379 145q-147 148 -147 377zM164 543l1 -33l2 -34l4 -32l5 -30l6 -31l8 -29l8 -27 l10 -26l11 -25l13 -25l13 -21l15 -21l15 -20l16 -19l17 -16l19 -16l19 -14l21 -13l22 -12l21 -9l23 -8l23 -7l24 -5l25 -3l25 -2l26 -1l27 2l27 3l28 4l28 6l29 8l29 9l30 12l29 12l30 15l29 16l30 18l30 19l29 21l28 23l29 24l20 17v1258l-10 1l-27 1l-26 -2l-28 -2l-27 -5 l-29 -6l-29 -8l-29 -9l-29 -11l-30 -13l-29 -14l-30 -17l-30 -18l-29 -19l-29 -21l-29 -22l-29 -24l-28 -26l-27 -27l-28 -28l-26 -31l-26 -31l-25 -33l-23 -33l-24 -36l-21 -37l-22 -37l-18 -38l-18 -37l-16 -38l-15 -38l-12 -38l-11 -37l-9 -38l-9 -37l-6 -37l-6 -37 l-3 -35l-2 -36v-34z" />
<glyph unicode="&#x153;" horiz-adv-x="2007" d="M-38 403q0 52 10 109q43 252 251 461q208 208 461 251q57 9 108 9q177 0 291 -113q3 -5 7 -8.5t8 -7.5q193 124 388 128h12q183 0 296 -112q114 -114 114 -300v-7l-1051 -393q0 -11 2 -33q3 -84 33 -150q27 -63 71 -100q19 -16 37 -26q47 -28 109 -32q64 -3 139 22 q75 26 153 83q44 33 89 79v-131q-192 -124 -383 -131q-13 -1 -25 -1q-175 0 -287 105q-8 7 -22 23q-189 -120 -383 -127q-12 -1 -23 -1q-179 0 -292 112q-113 114 -113 291zM146 394l2 -24l3 -23l3 -23l5 -21l5 -22l7 -19l7 -19l8 -18l9 -17l9 -15l10 -15l10 -14l12 -12 l12 -12l12 -11l14 -9l14 -9l14 -7l15 -7l16 -6l16 -5l17 -3l17 -2l18 -2h18l18 1l20 2l19 3l21 5l21 5l21 7l22 9l21 8l22 11l21 12l22 13l22 14l22 16l21 16l7 6q-59 117 -41 273t113 312q75 121 181 216l-8 16l-9 16l-11 14l-10 14l-11 12l-12 12l-13 10l-13 10l-14 9 l-15 8l-15 7l-15 5l-17 5l-16 3l-17 2l-18 2h-18l-19 -1l-19 -2l-20 -3l-21 -4l-20 -7l-21 -6l-21 -8l-22 -10l-22 -10l-22 -12l-22 -13l-21 -14l-21 -16l-22 -17l-21 -18l-21 -18l-21 -21l-20 -21l-19 -22l-20 -23l-19 -25l-18 -25l-17 -26l-16 -28l-16 -28l-14 -28 l-13 -28l-12 -28l-10 -28l-10 -28l-8 -28l-7 -28l-6 -28l-5 -28l-4 -26l-2 -27l-2 -25v-51zM863 508l861 323q-1 32 -4 47q-10 82 -42 141q-31 56 -77 89q-47 33 -104 42q-63 8 -133 -10q-77 -21 -152 -71q-79 -51 -148 -129q-67 -77 -117 -173q-49 -95 -72 -195 q-8 -34 -12 -64z" />
<glyph unicode="&#x178;" horiz-adv-x="1331" d="M20 1598h199l455 -702l514 702h65l-517 -707v-891h-199v800zM462 1674.5q6 37.5 38 69.5q30 30 68 36q9 2 17 2q25 0 43 -17q21 -22 14.5 -59.5t-36.5 -68.5q-32 -31 -69 -37t-59 16q-22 21 -16 58.5zM751.5 1674.5q6.5 37.5 37.5 69.5q30 30 68 36q8 2 16 2q27 0 44 -17 q21 -22 14.5 -59.5t-36.5 -68.5q-31 -31 -69 -37t-59 16q-22 21 -15.5 58.5z" />
<glyph unicode="&#x2c6;" horiz-adv-x="960" d="M20 1586v80l434 183l434 -183v-80l-434 80z" />
<glyph unicode="&#x2dc;" horiz-adv-x="990" d="M20 1752v79h867v-79h-867z" />
<glyph unicode="&#x2000;" horiz-adv-x="1024" />
<glyph unicode="&#x2001;" horiz-adv-x="2049" />
<glyph unicode="&#x2002;" horiz-adv-x="1024" />
<glyph unicode="&#x2003;" horiz-adv-x="2049" />
<glyph unicode="&#x2004;" horiz-adv-x="683" />
<glyph unicode="&#x2005;" horiz-adv-x="512" />
<glyph unicode="&#x2006;" horiz-adv-x="341" />
<glyph unicode="&#x2007;" horiz-adv-x="341" />
<glyph unicode="&#x2008;" horiz-adv-x="256" />
<glyph unicode="&#x2009;" horiz-adv-x="409" />
<glyph unicode="&#x200a;" horiz-adv-x="113" />
<glyph unicode="&#x2010;" horiz-adv-x="963" d="M20 717v183h867v-183h-867z" />
<glyph unicode="&#x2011;" horiz-adv-x="963" d="M20 717v183h867v-183h-867z" />
<glyph unicode="&#x2012;" horiz-adv-x="963" d="M20 717v183h867v-183h-867z" />
<glyph unicode="&#x2013;" horiz-adv-x="1458" d="M20 617v183h1301v-183h-1301z" />
<glyph unicode="&#x2014;" horiz-adv-x="2061" d="M20 700v92h1951v-92h-1951z" />
<glyph unicode="&#x2018;" horiz-adv-x="253" d="M20 1800h199l-67 -366h-66z" />
<glyph unicode="&#x2019;" horiz-adv-x="264" d="M20 1800h199l-67 -366h-66z" />
<glyph unicode="&#x201a;" horiz-adv-x="338" d="M20 -187l65 364h200l-200 -364h-65z" />
<glyph unicode="&#x201c;" horiz-adv-x="668" d="M20 1800h199l65 -366h-65zM293 1800h199l65 -366h-65z" />
<glyph unicode="&#x201d;" horiz-adv-x="652" d="M20 1434l65 366h199l-199 -366h-65zM293 1434l65 366h199l-199 -366h-65z" />
<glyph unicode="&#x2022;" horiz-adv-x="651" d="M7 759q0 113 64 227q76 131 195 187q60 27 113 27t99 -26q93 -54 105 -185q1 -17 1 -35q0 -113 -64 -227q-77 -131 -195 -186q-61 -28 -114 -28q-52 0 -98 26q-93 54 -105 185q-1 17 -1 35z" />
<glyph unicode="&#x2026;" horiz-adv-x="1061" d="M13 60q0 7 2 16q6 37 37 68t68 38q9 1 17 1q26 0 43 -16q21 -23 15 -60.5t-36 -67.5q-32 -31 -69 -38q-9 -1 -17 -1q-25 0 -42 17q-18 16 -18 43zM400 75.5q7 37.5 38 68.5q30 31 68 38q8 1 17 1q26 0 42 -16q22 -23 15 -60.5t-37 -67.5q-31 -31 -69 -38q-8 -1 -16 -1 q-26 0 -43 17q-22 21 -15 58.5zM784.5 75.5q6.5 37.5 37.5 68.5t68 38q9 1 17 1q26 0 43 -16q17 -17 17 -43q0 -9 -2 -17q-7 -38 -37 -68q-32 -31 -69 -38q-9 -1 -16 -1q-26 0 -43 17q-22 21 -15.5 58.5z" />
<glyph unicode="&#x202f;" horiz-adv-x="409" />
<glyph unicode="&#x2039;" horiz-adv-x="606" d="M20 817l525 616v-79l-342 -537l342 -537v-80z" />
<glyph unicode="&#x203a;" horiz-adv-x="611" d="M20 200v80l342 537l-342 537v79l525 -616z" />
<glyph unicode="&#x205f;" horiz-adv-x="512" />
<glyph unicode="&#x20ac;" horiz-adv-x="1164" d="M20 533q0 246 154 496t402.5 407.5t496.5 162.5v-67h-8q-90 7 -193 -25q-107 -36 -208 -110q-107 -77 -193 -184q-89 -108 -150 -237q-59 -125 -85 -259q-25 -130 -13 -246q1 -12 4 -34l846 846v-93l-830 -829q14 -49 35 -90q24 -50 60 -90l735 735v-92l-687 -687 q24 -17 37 -24q85 -49 194 -47q116 3 240 65q116 57 216 153v-114q-248 -161 -496 -169q-14 -1 -25 -1q-232 0 -378 140q-154 147 -154 393z" />
<glyph unicode="&#x2122;" horiz-adv-x="673" d="M20 1686v14h273v-14h-114v-339h-45v339h-114zM310 1347v353l128 -197l145 197v-353h-44v269l-120 -164l-94 146v-251h-15z" />
<glyph unicode="&#xe000;" horiz-adv-x="1230" d="M0 0v1230h1230v-1230h-1230z" />
</font>
</defs>
</svg>
